<svg width="275" height="29" viewBox="0 0 275 29" fill="none" xmlns="http://www.w3.org/2000/svg">
<path d="M14.623 17.665V20.7451C14.5736 22.7243 13.8376 24.1654 12.415 25.0684C10.9925 26.0085 9.33496 26.4785 7.44238 26.4785C6.3291 26.4785 5.35189 26.1755 4.51074 25.5693C3.64486 24.988 3.19954 24.1159 3.1748 22.9531C3.22428 20.3678 5.07357 18.9701 8.72266 18.7598C9.71224 18.7103 10.7018 18.599 11.6914 18.4258C12.681 18.2773 13.6582 18.0238 14.623 17.665ZM7.62793 16.9414C3.03874 17.5723 0.744141 19.5514 0.744141 22.8789C0.76888 24.7715 1.44303 26.1755 2.7666 27.0908C4.02832 28.0557 5.54362 28.5381 7.3125 28.5381C10.2318 28.5133 12.681 27.4248 14.6602 25.2725C14.6849 25.9528 14.8086 26.5713 15.0312 27.1279C15.2663 27.6846 15.7487 28.0371 16.4785 28.1855C16.8125 28.2598 17.1527 28.2969 17.499 28.2969C17.8577 28.2969 18.2165 28.235 18.5752 28.1113C18.8968 28.0371 19.138 27.9753 19.2988 27.9258V26.1445C18.3587 26.4661 17.7217 26.5033 17.3877 26.2559C17.029 26.0208 16.8682 25.4766 16.9053 24.623V13.8984C16.8682 11.6471 16.1816 10.0514 14.8457 9.11133C13.4974 8.23307 11.8027 7.79395 9.76172 7.79395C7.57227 7.79395 5.73535 8.28255 4.25098 9.25977C2.75423 10.2988 1.88835 11.9749 1.65332 14.2881H3.97266C4.23242 12.5934 4.8571 11.4121 5.84668 10.7441C6.861 10.1133 8.14746 9.81022 9.70605 9.83496C11.4873 9.8597 12.7552 10.2308 13.5098 10.9482C14.252 11.6781 14.623 12.6367 14.623 13.8242C14.623 14.1829 14.5859 14.5664 14.5117 14.9746C14.4004 15.3704 14.1592 15.6735 13.7881 15.8838C13.3799 16.0322 12.8975 16.1683 12.3408 16.292C11.7594 16.391 11.2399 16.4714 10.7822 16.5332L7.62793 16.9414ZM48.6709 18.0918C48.6709 20.4915 48.1081 22.4769 46.9824 24.0479C45.8444 25.6436 44.1868 26.4538 42.0098 26.4785C40.0677 26.4785 38.4844 25.7982 37.2598 24.4375C36.0228 23.1387 35.3672 21.2461 35.293 18.7598C35.2188 16.2363 35.7383 14.1211 36.8516 12.4141C37.9401 10.7194 39.6595 9.8597 42.0098 9.83496C44.1126 9.88444 45.7454 10.6947 46.9082 12.2656C48.0833 13.8366 48.6709 15.7786 48.6709 18.0918ZM48.6709 11.4678C47.904 10.2555 46.902 9.33398 45.665 8.70312C44.4157 8.09701 43.0736 7.79395 41.6387 7.79395C38.6452 7.84342 36.4372 8.8763 35.0146 10.8926C33.5798 12.8965 32.8623 15.3333 32.8623 18.2031C32.8376 21.1595 33.5303 23.6025 34.9404 25.5322C36.363 27.4867 38.6328 28.4886 41.75 28.5381C43.0612 28.5133 44.3662 28.1546 45.665 27.4619C46.9268 26.8063 47.8978 25.8353 48.5781 24.5488H48.6709V28H50.9346V0.650391H48.6709V11.4678ZM59.3213 28V8.31348H57.0391V28H59.3213ZM59.4326 4.02734V0.650391H56.9277V4.02734H59.4326ZM66.1123 10.2246V28H68.3945V10.2246H72.1797V8.31348H68.3945V5.88281C68.3574 4.91797 68.4688 4.05827 68.7285 3.30371C68.9759 2.57389 69.6748 2.19043 70.8252 2.15332C71.2458 2.15332 71.6973 2.22135 72.1797 2.35742V0.260742C71.5983 0.161784 70.9674 0.112305 70.2871 0.112305C67.4173 0.186523 66.0257 1.88118 66.1123 5.19629V8.31348H63.1807V10.2246H66.1123ZM75.9834 10.2246V28H78.2656V10.2246H82.0508V8.31348H78.2656V5.88281C78.2285 4.91797 78.3398 4.05827 78.5996 3.30371C78.847 2.57389 79.5459 2.19043 80.6963 2.15332C81.1169 2.15332 81.5684 2.22135 82.0508 2.35742V0.260742C81.4694 0.161784 80.8385 0.112305 80.1582 0.112305C77.2884 0.186523 75.8968 1.88118 75.9834 5.19629V8.31348H73.0518V10.2246H75.9834ZM87.0049 16.793C87.2399 14.8633 87.9017 13.2305 88.9902 11.8945C90.0788 10.5462 91.625 9.8597 93.6289 9.83496C95.6699 9.8597 97.2223 10.5339 98.2861 11.8574C99.3252 13.1439 99.8447 14.7891 99.8447 16.793H87.0049ZM102.275 18.6855C102.102 11.474 99.2201 7.84342 93.6289 7.79395C90.7839 7.84342 88.5758 8.85156 87.0049 10.8184C85.3844 12.7975 84.5742 15.2715 84.5742 18.2402C84.5495 21.1966 85.2731 23.6273 86.7451 25.5322C88.2171 27.4867 90.5117 28.4886 93.6289 28.5381C96.1029 28.5133 98.014 27.8763 99.3623 26.627C100.674 25.4147 101.595 23.8561 102.127 21.9512H99.585C98.7438 24.9447 96.7585 26.4538 93.6289 26.4785C91.4395 26.4538 89.7881 25.6807 88.6748 24.1592C87.5615 22.6872 87.0049 20.8626 87.0049 18.6855H102.275ZM109.141 18.3516C109.116 16.0755 109.561 14.152 110.477 12.5811C111.417 11.0348 113.142 10.2617 115.653 10.2617V7.79395C114.033 7.79395 112.715 8.09701 111.701 8.70312C110.687 9.33398 109.864 10.4349 109.233 12.0059H109.141V8.31348H106.877V28H109.141V18.3516ZM120.106 16.793C120.341 14.8633 121.003 13.2305 122.092 11.8945C123.18 10.5462 124.727 9.8597 126.73 9.83496C128.771 9.8597 130.324 10.5339 131.388 11.8574C132.427 13.1439 132.946 14.7891 132.946 16.793H120.106ZM135.377 18.6855C135.204 11.474 132.322 7.84342 126.73 7.79395C123.885 7.84342 121.677 8.85156 120.106 10.8184C118.486 12.7975 117.676 15.2715 117.676 18.2402C117.651 21.1966 118.375 23.6273 119.847 25.5322C121.319 27.4867 123.613 28.4886 126.73 28.5381C129.204 28.5133 131.116 27.8763 132.464 26.627C133.775 25.4147 134.697 23.8561 135.229 21.9512H132.687C131.845 24.9447 129.86 26.4538 126.73 26.4785C124.541 26.4538 122.89 25.6807 121.776 24.1592C120.663 22.6872 120.106 20.8626 120.106 18.6855H135.377ZM142.131 17.4053C142.106 16.1064 142.273 14.8633 142.632 13.6758C143.04 12.612 143.696 11.7152 144.599 10.9854C145.514 10.2432 146.683 9.8597 148.105 9.83496C151.544 9.83496 153.239 11.61 153.189 15.1602V28H155.472V15.123C155.472 14.2819 155.435 13.484 155.36 12.7295C155.261 11.9873 154.971 11.276 154.488 10.5957C152.992 8.66602 150.988 7.7321 148.477 7.79395C147.141 7.79395 145.978 8.08464 144.988 8.66602C143.974 9.2474 143.021 10.0452 142.131 11.0596V8.31348H139.849V28H142.131V17.4053ZM167.922 26.2188C167.316 26.3919 166.697 26.4785 166.066 26.4785C165.151 26.4785 164.594 26.2497 164.396 25.792C164.161 25.3343 164.056 24.6416 164.081 23.7139V10.2246H167.773V8.31348H164.081V2.83984H161.799V8.31348H159.034V10.2246H161.799V24.623C161.799 26.0332 162.12 27.0475 162.764 27.666C163.345 28.2474 164.192 28.5381 165.306 28.5381C165.887 28.5133 166.407 28.4329 166.864 28.2969C167.297 28.1979 167.65 28.1237 167.922 28.0742V26.2188ZM183.118 10.2246V28H185.4V10.2246H189.186V8.31348H185.4V5.88281C185.363 4.91797 185.475 4.05827 185.734 3.30371C185.982 2.57389 186.681 2.19043 187.831 2.15332C188.252 2.15332 188.703 2.22135 189.186 2.35742V0.260742C188.604 0.161784 187.973 0.112305 187.293 0.112305C184.423 0.186523 183.032 1.88118 183.118 5.19629V8.31348H180.187V10.2246H183.118ZM206.07 19.0381C206.07 21.2399 205.551 23.0088 204.512 24.3447C203.473 25.7425 201.994 26.4538 200.077 26.4785C196.651 26.4538 194.962 24.7035 195.012 21.2275V8.31348H192.729V21.2832C192.705 23.349 193.224 25.056 194.288 26.4043C195.327 27.8021 197.139 28.5133 199.725 28.5381C200.59 28.5133 201.364 28.3835 202.044 28.1484C202.7 27.9505 203.269 27.6969 203.751 27.3877C204.258 27.0413 204.703 26.6764 205.087 26.293C205.47 25.9342 205.798 25.5941 206.07 25.2725V28H208.353V8.31348H206.07V19.0381ZM220.803 26.2188C220.197 26.3919 219.578 26.4785 218.947 26.4785C218.032 26.4785 217.475 26.2497 217.277 25.792C217.042 25.3343 216.937 24.6416 216.962 23.7139V10.2246H220.654V8.31348H216.962V2.83984H214.68V8.31348H211.915V10.2246H214.68V24.623C214.68 26.0332 215.001 27.0475 215.645 27.666C216.226 28.2474 217.073 28.5381 218.187 28.5381C218.768 28.5133 219.287 28.4329 219.745 28.2969C220.178 28.1979 220.531 28.1237 220.803 28.0742V26.2188ZM237.799 19.0381C237.799 21.2399 237.279 23.0088 236.24 24.3447C235.201 25.7425 233.723 26.4538 231.806 26.4785C228.379 26.4538 226.691 24.7035 226.74 21.2275V8.31348H224.458V21.2832C224.433 23.349 224.953 25.056 226.017 26.4043C227.056 27.8021 228.868 28.5133 231.453 28.5381C232.319 28.5133 233.092 28.3835 233.772 28.1484C234.428 27.9505 234.997 27.6969 235.479 27.3877C235.987 27.0413 236.432 26.6764 236.815 26.293C237.199 25.9342 237.527 25.5941 237.799 25.2725V28H240.081V8.31348H237.799V19.0381ZM248.004 18.3516C247.979 16.0755 248.424 14.152 249.34 12.5811C250.28 11.0348 252.006 10.2617 254.517 10.2617V7.79395C252.896 7.79395 251.579 8.09701 250.564 8.70312C249.55 9.33398 248.728 10.4349 248.097 12.0059H248.004V8.31348H245.74V28H248.004V18.3516ZM258.97 16.793C259.205 14.8633 259.867 13.2305 260.955 11.8945C262.044 10.5462 263.59 9.8597 265.594 9.83496C267.635 9.8597 269.187 10.5339 270.251 11.8574C271.29 13.1439 271.81 14.7891 271.81 16.793H258.97ZM274.24 18.6855C274.067 11.474 271.185 7.84342 265.594 7.79395C262.749 7.84342 260.541 8.85156 258.97 10.8184C257.349 12.7975 256.539 15.2715 256.539 18.2402C256.514 21.1966 257.238 23.6273 258.71 25.5322C260.182 27.4867 262.477 28.4886 265.594 28.5381C268.068 28.5133 269.979 27.8763 271.327 26.627C272.638 25.4147 273.56 23.8561 274.092 21.9512H271.55C270.709 24.9447 268.723 26.4538 265.594 26.4785C263.404 26.4538 261.753 25.6807 260.64 24.1592C259.526 22.6872 258.97 20.8626 258.97 18.6855H274.24Z" fill="white"/>
</svg>
