<svg width="572" height="263" viewBox="0 0 572 263" fill="none" xmlns="http://www.w3.org/2000/svg">
<path d="M47.0781 18.2031C47.9219 18.2031 48.6875 18.2344 49.375 18.2969C50.0625 18.3281 51 18.3906 52.1875 18.4844V29.3594C51.4375 29.2656 50.1719 29.2031 48.3906 29.1719C46.6406 29.1094 45.4219 29.5 44.7344 30.3438C44.0781 31.1562 43.75 32.0625 43.75 33.0625C43.75 34.0625 43.75 35.5 43.75 37.375H52.5156V46.7969H43.75V88H30.4375V46.7969H22.9844V37.375H30.2969V34.0938C30.2969 28.625 31.2188 24.8594 33.0625 22.7969C35 19.7344 39.6719 18.2031 47.0781 18.2031ZM88.375 63.1562C87.5312 63.6875 86.6719 64.125 85.7969 64.4688C84.9531 64.7812 83.7812 65.0781 82.2812 65.3594L79.2812 65.9219C76.4688 66.4219 74.4531 67.0312 73.2344 67.75C71.1719 68.9688 70.1406 70.8594 70.1406 73.4219C70.1406 75.7031 70.7656 77.3594 72.0156 78.3906C73.2969 79.3906 74.8438 79.8906 76.6562 79.8906C79.5312 79.8906 82.1719 79.0469 84.5781 77.3594C87.0156 75.6719 88.2812 72.5938 88.375 68.125V63.1562ZM80.2656 56.9219C82.7344 56.6094 84.5 56.2188 85.5625 55.75C87.4688 54.9375 88.4219 53.6719 88.4219 51.9531C88.4219 49.8594 87.6875 48.4219 86.2188 47.6406C84.7812 46.8281 82.6562 46.4219 79.8438 46.4219C76.6875 46.4219 74.4531 47.2031 73.1406 48.7656C72.2031 49.9219 71.5781 51.4844 71.2656 53.4531H58.375C58.6562 48.9844 59.9062 45.3125 62.125 42.4375C65.6562 37.9375 71.7188 35.6875 80.3125 35.6875C85.9062 35.6875 90.875 36.7969 95.2188 39.0156C99.5625 41.2344 101.734 45.4219 101.734 51.5781V75.0156C101.734 76.6406 101.766 78.6094 101.828 80.9219C101.922 82.6719 102.188 83.8594 102.625 84.4844C103.062 85.1094 103.719 85.625 104.594 86.0312V88H90.0625C89.6562 86.9688 89.375 86 89.2188 85.0938C89.0625 84.1875 88.9375 83.1562 88.8438 82C87 84 84.875 85.7031 82.4688 87.1094C79.5938 88.7656 76.3438 89.5938 72.7188 89.5938C68.0938 89.5938 64.2656 88.2812 61.2344 85.6562C58.2344 83 56.7344 79.25 56.7344 74.4062C56.7344 68.125 59.1562 63.5781 64 60.7656C66.6562 59.2344 70.5625 58.1406 75.7188 57.4844L80.2656 56.9219ZM124.047 71.6875C124.328 74.0625 124.938 75.75 125.875 76.75C127.531 78.5312 130.594 79.4219 135.062 79.4219C137.688 79.4219 139.766 79.0312 141.297 78.25C142.859 77.4688 143.641 76.2969 143.641 74.7344C143.641 73.2344 143.016 72.0938 141.766 71.3125C140.516 70.5312 135.875 69.1875 127.844 67.2812C122.062 65.8438 117.984 64.0469 115.609 61.8906C113.234 59.7656 112.047 56.7031 112.047 52.7031C112.047 47.9844 113.891 43.9375 117.578 40.5625C121.297 37.1562 126.516 35.4531 133.234 35.4531C139.609 35.4531 144.797 36.7344 148.797 39.2969C152.828 41.8281 155.141 46.2188 155.734 52.4688H142.375C142.188 50.75 141.703 49.3906 140.922 48.3906C139.453 46.5781 136.953 45.6719 133.422 45.6719C130.516 45.6719 128.438 46.125 127.188 47.0312C125.969 47.9375 125.359 49 125.359 50.2188C125.359 51.75 126.016 52.8594 127.328 53.5469C128.641 54.2656 133.281 55.5 141.25 57.25C146.562 58.5 150.547 60.3906 153.203 62.9219C155.828 65.4844 157.141 68.6875 157.141 72.5312C157.141 77.5938 155.25 81.7344 151.469 84.9531C147.719 88.1406 141.906 89.7344 134.031 89.7344C126 89.7344 120.062 88.0469 116.219 84.6719C112.406 81.2656 110.5 76.9375 110.5 71.6875H124.047ZM161.828 46.8906V37.375H168.953V23.125H182.172V37.375H190.469V46.8906H182.172V73.8906C182.172 75.9844 182.438 77.2969 182.969 77.8281C183.5 78.3281 185.125 78.5781 187.844 78.5781C188.25 78.5781 188.672 78.5781 189.109 78.5781C189.578 78.5469 190.031 78.5156 190.469 78.4844V88.4688L184.141 88.7031C177.828 88.9219 173.516 87.8281 171.203 85.4219C169.703 83.8906 168.953 81.5312 168.953 78.3438V46.8906H161.828ZM244.609 18.2031C245.453 18.2031 246.219 18.2344 246.906 18.2969C247.594 18.3281 248.531 18.3906 249.719 18.4844V29.3594C248.969 29.2656 247.703 29.2031 245.922 29.1719C244.172 29.1094 242.953 29.5 242.266 30.3438C241.609 31.1562 241.281 32.0625 241.281 33.0625C241.281 34.0625 241.281 35.5 241.281 37.375H250.047V46.7969H241.281V88H227.969V46.7969H220.516V37.375H227.828V34.0938C227.828 28.625 228.75 24.8594 230.594 22.7969C232.531 19.7344 237.203 18.2031 244.609 18.2031ZM280.656 78.5781C284.562 78.5781 287.562 77.1875 289.656 74.4062C291.75 71.625 292.797 67.6719 292.797 62.5469C292.797 57.4219 291.75 53.4844 289.656 50.7344C287.562 47.9531 284.562 46.5625 280.656 46.5625C276.75 46.5625 273.734 47.9531 271.609 50.7344C269.516 53.4844 268.469 57.4219 268.469 62.5469C268.469 67.6719 269.516 71.625 271.609 74.4062C273.734 77.1875 276.75 78.5781 280.656 78.5781ZM306.812 62.5469C306.812 70.0469 304.656 76.4688 300.344 81.8125C296.031 87.125 289.484 89.7812 280.703 89.7812C271.922 89.7812 265.375 87.125 261.062 81.8125C256.75 76.4688 254.594 70.0469 254.594 62.5469C254.594 55.1719 256.75 48.7812 261.062 43.375C265.375 37.9688 271.922 35.2656 280.703 35.2656C289.484 35.2656 296.031 37.9688 300.344 43.375C304.656 48.7812 306.812 55.1719 306.812 62.5469ZM344.172 35.6875C344.422 35.6875 344.625 35.7031 344.781 35.7344C344.969 35.7344 345.359 35.75 345.953 35.7812V49.4688C345.109 49.375 344.359 49.3125 343.703 49.2812C343.047 49.25 342.516 49.2344 342.109 49.2344C336.734 49.2344 333.125 50.9844 331.281 54.4844C330.25 56.4531 329.734 59.4844 329.734 63.5781V88H316.281V36.9062H329.031V45.8125C331.094 42.4062 332.891 40.0781 334.422 38.8281C336.922 36.7344 340.172 35.6875 344.172 35.6875ZM377.922 36.9062H391.469L399.25 73.7031L407.219 36.9062H421.141L406.328 88H392.594L384.578 50.7812L376.469 88H362.594L348.25 36.9062H362.594L370.562 73.5625L377.922 36.9062ZM456.719 63.1562C455.875 63.6875 455.016 64.125 454.141 64.4688C453.297 64.7812 452.125 65.0781 450.625 65.3594L447.625 65.9219C444.812 66.4219 442.797 67.0312 441.578 67.75C439.516 68.9688 438.484 70.8594 438.484 73.4219C438.484 75.7031 439.109 77.3594 440.359 78.3906C441.641 79.3906 443.188 79.8906 445 79.8906C447.875 79.8906 450.516 79.0469 452.922 77.3594C455.359 75.6719 456.625 72.5938 456.719 68.125V63.1562ZM448.609 56.9219C451.078 56.6094 452.844 56.2188 453.906 55.75C455.812 54.9375 456.766 53.6719 456.766 51.9531C456.766 49.8594 456.031 48.4219 454.562 47.6406C453.125 46.8281 451 46.4219 448.188 46.4219C445.031 46.4219 442.797 47.2031 441.484 48.7656C440.547 49.9219 439.922 51.4844 439.609 53.4531H426.719C427 48.9844 428.25 45.3125 430.469 42.4375C434 37.9375 440.062 35.6875 448.656 35.6875C454.25 35.6875 459.219 36.7969 463.562 39.0156C467.906 41.2344 470.078 45.4219 470.078 51.5781V75.0156C470.078 76.6406 470.109 78.6094 470.172 80.9219C470.266 82.6719 470.531 83.8594 470.969 84.4844C471.406 85.1094 472.062 85.625 472.938 86.0312V88H458.406C458 86.9688 457.719 86 457.562 85.0938C457.406 84.1875 457.281 83.1562 457.188 82C455.344 84 453.219 85.7031 450.812 87.1094C447.938 88.7656 444.688 89.5938 441.062 89.5938C436.438 89.5938 432.609 88.2812 429.578 85.6562C426.578 83 425.078 79.25 425.078 74.4062C425.078 68.125 427.5 63.5781 432.344 60.7656C435 59.2344 438.906 58.1406 444.062 57.4844L448.609 56.9219ZM509.734 35.6875C509.984 35.6875 510.188 35.7031 510.344 35.7344C510.531 35.7344 510.922 35.75 511.516 35.7812V49.4688C510.672 49.375 509.922 49.3125 509.266 49.2812C508.609 49.25 508.078 49.2344 507.672 49.2344C502.297 49.2344 498.688 50.9844 496.844 54.4844C495.812 56.4531 495.297 59.4844 495.297 63.5781V88H481.844V36.9062H494.594V45.8125C496.656 42.4062 498.453 40.0781 499.984 38.8281C502.484 36.7344 505.734 35.6875 509.734 35.6875ZM538.234 35.6875C541.328 35.6875 544.078 36.375 546.484 37.75C548.891 39.0938 550.844 40.9688 552.344 43.375V19H565.891V88H552.906V80.9219C551 83.9531 548.828 86.1562 546.391 87.5312C543.953 88.9062 540.922 89.5938 537.297 89.5938C531.328 89.5938 526.297 87.1875 522.203 82.375C518.141 77.5312 516.109 71.3281 516.109 63.7656C516.109 55.0469 518.109 48.1875 522.109 43.1875C526.141 38.1875 531.516 35.6875 538.234 35.6875ZM541.141 78.3438C544.922 78.3438 547.797 76.9375 549.766 74.125C551.734 71.3125 552.719 67.6719 552.719 63.2031C552.719 56.9531 551.141 52.4844 547.984 49.7969C546.047 48.1719 543.797 47.3594 541.234 47.3594C537.328 47.3594 534.453 48.8438 532.609 51.8125C530.797 54.75 529.891 58.4062 529.891 62.7812C529.891 67.5 530.812 71.2812 532.656 74.125C534.531 76.9375 537.359 78.3438 541.141 78.3438Z" fill="white"/>
<path d="M302.623 136.665V139.745C302.574 141.724 301.838 143.165 300.415 144.068C298.993 145.008 297.335 145.479 295.442 145.479C294.329 145.479 293.352 145.175 292.511 144.569C291.645 143.988 291.2 143.116 291.175 141.953C291.224 139.368 293.074 137.97 296.723 137.76C297.712 137.71 298.702 137.599 299.691 137.426C300.681 137.277 301.658 137.024 302.623 136.665ZM295.628 135.941C291.039 136.572 288.744 138.551 288.744 141.879C288.769 143.771 289.443 145.175 290.767 146.091C292.028 147.056 293.544 147.538 295.312 147.538C298.232 147.513 300.681 146.425 302.66 144.272C302.685 144.953 302.809 145.571 303.031 146.128C303.266 146.685 303.749 147.037 304.479 147.186C304.812 147.26 305.153 147.297 305.499 147.297C305.858 147.297 306.216 147.235 306.575 147.111C306.897 147.037 307.138 146.975 307.299 146.926V145.145C306.359 145.466 305.722 145.503 305.388 145.256C305.029 145.021 304.868 144.477 304.905 143.623V132.898C304.868 130.647 304.182 129.051 302.846 128.111C301.497 127.233 299.803 126.794 297.762 126.794C295.572 126.794 293.735 127.283 292.251 128.26C290.754 129.299 289.888 130.975 289.653 133.288H291.973C292.232 131.593 292.857 130.412 293.847 129.744C294.861 129.113 296.147 128.81 297.706 128.835C299.487 128.86 300.755 129.231 301.51 129.948C302.252 130.678 302.623 131.637 302.623 132.824C302.623 133.183 302.586 133.566 302.512 133.975C302.4 134.37 302.159 134.674 301.788 134.884C301.38 135.032 300.897 135.168 300.341 135.292C299.759 135.391 299.24 135.471 298.782 135.533L295.628 135.941ZM336.671 137.092C336.671 139.492 336.108 141.477 334.982 143.048C333.844 144.644 332.187 145.454 330.01 145.479C328.068 145.479 326.484 144.798 325.26 143.438C324.023 142.139 323.367 140.246 323.293 137.76C323.219 135.236 323.738 133.121 324.852 131.414C325.94 129.719 327.66 128.86 330.01 128.835C332.113 128.884 333.745 129.695 334.908 131.266C336.083 132.837 336.671 134.779 336.671 137.092ZM336.671 130.468C335.904 129.256 334.902 128.334 333.665 127.703C332.416 127.097 331.074 126.794 329.639 126.794C326.645 126.843 324.437 127.876 323.015 129.893C321.58 131.896 320.862 134.333 320.862 137.203C320.838 140.16 321.53 142.603 322.94 144.532C324.363 146.487 326.633 147.489 329.75 147.538C331.061 147.513 332.366 147.155 333.665 146.462C334.927 145.806 335.898 144.835 336.578 143.549H336.671V147H338.935V119.65H336.671V130.468ZM347.321 147V127.313H345.039V147H347.321ZM347.433 123.027V119.65H344.928V123.027H347.433ZM354.112 129.225V147H356.395V129.225H360.18V127.313H356.395V124.883C356.357 123.918 356.469 123.058 356.729 122.304C356.976 121.574 357.675 121.19 358.825 121.153C359.246 121.153 359.697 121.221 360.18 121.357V119.261C359.598 119.162 358.967 119.112 358.287 119.112C355.417 119.187 354.026 120.881 354.112 124.196V127.313H351.181V129.225H354.112ZM363.983 129.225V147H366.266V129.225H370.051V127.313H366.266V124.883C366.229 123.918 366.34 123.058 366.6 122.304C366.847 121.574 367.546 121.19 368.696 121.153C369.117 121.153 369.568 121.221 370.051 121.357V119.261C369.469 119.162 368.839 119.112 368.158 119.112C365.288 119.187 363.897 120.881 363.983 124.196V127.313H361.052V129.225H363.983ZM375.005 135.793C375.24 133.863 375.902 132.23 376.99 130.895C378.079 129.546 379.625 128.86 381.629 128.835C383.67 128.86 385.222 129.534 386.286 130.857C387.325 132.144 387.845 133.789 387.845 135.793H375.005ZM390.275 137.686C390.102 130.474 387.22 126.843 381.629 126.794C378.784 126.843 376.576 127.852 375.005 129.818C373.384 131.798 372.574 134.271 372.574 137.24C372.549 140.197 373.273 142.627 374.745 144.532C376.217 146.487 378.512 147.489 381.629 147.538C384.103 147.513 386.014 146.876 387.362 145.627C388.674 144.415 389.595 142.856 390.127 140.951H387.585C386.744 143.945 384.758 145.454 381.629 145.479C379.439 145.454 377.788 144.681 376.675 143.159C375.562 141.687 375.005 139.863 375.005 137.686H390.275ZM397.141 137.352C397.116 135.076 397.561 133.152 398.477 131.581C399.417 130.035 401.142 129.262 403.653 129.262V126.794C402.033 126.794 400.715 127.097 399.701 127.703C398.687 128.334 397.864 129.435 397.233 131.006H397.141V127.313H394.877V147H397.141V137.352ZM408.106 135.793C408.341 133.863 409.003 132.23 410.092 130.895C411.18 129.546 412.727 128.86 414.73 128.835C416.771 128.86 418.324 129.534 419.388 130.857C420.427 132.144 420.946 133.789 420.946 135.793H408.106ZM423.377 137.686C423.204 130.474 420.322 126.843 414.73 126.794C411.885 126.843 409.677 127.852 408.106 129.818C406.486 131.798 405.676 134.271 405.676 137.24C405.651 140.197 406.375 142.627 407.847 144.532C409.319 146.487 411.613 147.489 414.73 147.538C417.204 147.513 419.116 146.876 420.464 145.627C421.775 144.415 422.697 142.856 423.229 140.951H420.687C419.845 143.945 417.86 145.454 414.73 145.479C412.541 145.454 410.89 144.681 409.776 143.159C408.663 141.687 408.106 139.863 408.106 137.686H423.377ZM430.131 136.405C430.106 135.106 430.273 133.863 430.632 132.676C431.04 131.612 431.696 130.715 432.599 129.985C433.514 129.243 434.683 128.86 436.105 128.835C439.544 128.835 441.239 130.61 441.189 134.16V147H443.472V134.123C443.472 133.282 443.435 132.484 443.36 131.729C443.261 130.987 442.971 130.276 442.488 129.596C440.992 127.666 438.988 126.732 436.477 126.794C435.141 126.794 433.978 127.085 432.988 127.666C431.974 128.247 431.021 129.045 430.131 130.06V127.313H427.849V147H430.131V136.405ZM455.922 145.219C455.316 145.392 454.697 145.479 454.066 145.479C453.151 145.479 452.594 145.25 452.396 144.792C452.161 144.334 452.056 143.642 452.081 142.714V129.225H455.773V127.313H452.081V121.84H449.799V127.313H447.034V129.225H449.799V143.623C449.799 145.033 450.12 146.048 450.764 146.666C451.345 147.247 452.192 147.538 453.306 147.538C453.887 147.513 454.407 147.433 454.864 147.297C455.297 147.198 455.65 147.124 455.922 147.074V145.219ZM471.118 129.225V147H473.4V129.225H477.186V127.313H473.4V124.883C473.363 123.918 473.475 123.058 473.734 122.304C473.982 121.574 474.681 121.19 475.831 121.153C476.252 121.153 476.703 121.221 477.186 121.357V119.261C476.604 119.162 475.973 119.112 475.293 119.112C472.423 119.187 471.032 120.881 471.118 124.196V127.313H468.187V129.225H471.118ZM494.07 138.038C494.07 140.24 493.551 142.009 492.512 143.345C491.473 144.743 489.994 145.454 488.077 145.479C484.651 145.454 482.962 143.703 483.012 140.228V127.313H480.729V140.283C480.705 142.349 481.224 144.056 482.288 145.404C483.327 146.802 485.139 147.513 487.725 147.538C488.59 147.513 489.364 147.383 490.044 147.148C490.7 146.951 491.269 146.697 491.751 146.388C492.258 146.041 492.703 145.676 493.087 145.293C493.47 144.934 493.798 144.594 494.07 144.272V147H496.353V127.313H494.07V138.038ZM508.803 145.219C508.197 145.392 507.578 145.479 506.947 145.479C506.032 145.479 505.475 145.25 505.277 144.792C505.042 144.334 504.937 143.642 504.962 142.714V129.225H508.654V127.313H504.962V121.84H502.68V127.313H499.915V129.225H502.68V143.623C502.68 145.033 503.001 146.048 503.645 146.666C504.226 147.247 505.073 147.538 506.187 147.538C506.768 147.513 507.287 147.433 507.745 147.297C508.178 147.198 508.531 147.124 508.803 147.074V145.219ZM525.799 138.038C525.799 140.24 525.279 142.009 524.24 143.345C523.201 144.743 521.723 145.454 519.806 145.479C516.379 145.454 514.691 143.703 514.74 140.228V127.313H512.458V140.283C512.433 142.349 512.953 144.056 514.017 145.404C515.056 146.802 516.868 147.513 519.453 147.538C520.319 147.513 521.092 147.383 521.772 147.148C522.428 146.951 522.997 146.697 523.479 146.388C523.987 146.041 524.432 145.676 524.815 145.293C525.199 144.934 525.527 144.594 525.799 144.272V147H528.081V127.313H525.799V138.038ZM536.004 137.352C535.979 135.076 536.424 133.152 537.34 131.581C538.28 130.035 540.006 129.262 542.517 129.262V126.794C540.896 126.794 539.579 127.097 538.564 127.703C537.55 128.334 536.728 129.435 536.097 131.006H536.004V127.313H533.74V147H536.004V137.352ZM546.97 135.793C547.205 133.863 547.867 132.23 548.955 130.895C550.044 129.546 551.59 128.86 553.594 128.835C555.635 128.86 557.187 129.534 558.251 130.857C559.29 132.144 559.81 133.789 559.81 135.793H546.97ZM562.24 137.686C562.067 130.474 559.185 126.843 553.594 126.794C550.749 126.843 548.541 127.852 546.97 129.818C545.349 131.798 544.539 134.271 544.539 137.24C544.514 140.197 545.238 142.627 546.71 144.532C548.182 146.487 550.477 147.489 553.594 147.538C556.068 147.513 557.979 146.876 559.327 145.627C560.638 144.415 561.56 142.856 562.092 140.951H559.55C558.709 143.945 556.723 145.454 553.594 145.479C551.404 145.454 549.753 144.681 548.64 143.159C547.526 141.687 546.97 139.863 546.97 137.686H562.24Z" fill="white"/>
<g opacity="0.2">
<path d="M27.8125 150.479L40.7917 137.5L27.8125 124.521" stroke="#E62B1E" stroke-width="1.5" stroke-linecap="round" stroke-linejoin="round"/>
<path d="M50.0625 150.479L63.0417 137.5L50.0625 124.521" stroke="#E62B1E" stroke-width="1.5" stroke-linecap="round" stroke-linejoin="round"/>
</g>
<g opacity="0.4">
<path d="M77.8125 150.479L90.7917 137.5L77.8125 124.521" stroke="#E62B1E" stroke-width="1.5" stroke-linecap="round" stroke-linejoin="round"/>
<path d="M100.063 150.479L113.042 137.5L100.063 124.521" stroke="#E62B1E" stroke-width="1.5" stroke-linecap="round" stroke-linejoin="round"/>
</g>
<g opacity="0.6">
<path d="M122.813 150.479L135.792 137.5L122.813 124.521" stroke="#E62B1E" stroke-width="1.5" stroke-linecap="round" stroke-linejoin="round"/>
<path d="M145.063 150.479L158.042 137.5L145.063 124.521" stroke="#E62B1E" stroke-width="1.5" stroke-linecap="round" stroke-linejoin="round"/>
</g>
<g opacity="0.8">
<path d="M170.813 150.479L183.792 137.5L170.813 124.521" stroke="#E62B1E" stroke-width="1.5" stroke-linecap="round" stroke-linejoin="round"/>
<path d="M193.063 150.479L206.042 137.5L193.063 124.521" stroke="#E62B1E" stroke-width="1.5" stroke-linecap="round" stroke-linejoin="round"/>
</g>
<path d="M218.812 150.479L231.792 137.5L218.812 124.521" stroke="#E62B1E" stroke-width="1.5" stroke-linecap="round" stroke-linejoin="round"/>
<path d="M241.062 150.479L254.042 137.5L241.062 124.521" stroke="#E62B1E" stroke-width="1.5" stroke-linecap="round" stroke-linejoin="round"/>
<path d="M57.6562 240C57.7246 238.735 57.9844 237.635 58.4355 236.698C58.8936 235.762 59.7822 234.911 61.1016 234.145L63.0703 233.007C63.9521 232.494 64.5708 232.057 64.9263 231.694C65.4868 231.127 65.7671 230.478 65.7671 229.746C65.7671 228.892 65.5107 228.215 64.998 227.716C64.4854 227.21 63.8018 226.957 62.9473 226.957C61.6826 226.957 60.8076 227.436 60.3223 228.393C60.0625 228.905 59.9189 229.616 59.8916 230.525H58.0151C58.0356 229.247 58.2715 228.205 58.7227 227.398C59.5225 225.976 60.9341 225.265 62.9575 225.265C64.6392 225.265 65.8662 225.72 66.6387 226.629C67.418 227.538 67.8076 228.55 67.8076 229.664C67.8076 230.84 67.394 231.845 66.5669 232.679C66.0884 233.164 65.2305 233.752 63.9932 234.442L62.5884 235.222C61.9185 235.591 61.3921 235.943 61.0093 236.278C60.3257 236.873 59.895 237.532 59.7173 238.257H67.7358V240H57.6562ZM74.8315 225.255C76.4722 225.255 77.6138 225.682 78.2563 226.537C78.9058 227.384 79.2305 228.259 79.2305 229.162H77.4053C77.2959 228.581 77.1216 228.126 76.8823 227.798C76.438 227.183 75.7646 226.875 74.8623 226.875C73.8301 226.875 73.0098 227.354 72.4014 228.311C71.793 229.261 71.4546 230.625 71.3862 232.402C71.8101 231.78 72.3433 231.315 72.9858 231.007C73.5737 230.734 74.23 230.597 74.9546 230.597C76.1851 230.597 77.2583 230.99 78.1743 231.776C79.0903 232.562 79.5483 233.735 79.5483 235.293C79.5483 236.626 79.1143 237.809 78.2461 238.841C77.3779 239.867 76.1406 240.379 74.5342 240.379C73.1602 240.379 71.9741 239.86 70.9761 238.821C69.978 237.775 69.479 236.018 69.479 233.55C69.479 231.725 69.7012 230.177 70.1455 228.905C71 226.472 72.562 225.255 74.8315 225.255ZM74.6982 238.739C75.6689 238.739 76.3936 238.414 76.8721 237.765C77.3574 237.108 77.6001 236.336 77.6001 235.447C77.6001 234.695 77.3848 233.981 76.9541 233.304C76.5234 232.621 75.7407 232.279 74.606 232.279C73.813 232.279 73.1157 232.542 72.5142 233.068C71.9194 233.595 71.6221 234.388 71.6221 235.447C71.6221 236.377 71.8921 237.16 72.4321 237.795C72.979 238.424 73.7344 238.739 74.6982 238.739ZM82.1016 225.952H83.9678V229.018H85.7212V230.525H83.9678V237.693C83.9678 238.076 84.0977 238.332 84.3574 238.462C84.501 238.537 84.7402 238.575 85.0752 238.575C85.1641 238.575 85.2598 238.575 85.3623 238.575C85.4648 238.568 85.5845 238.558 85.7212 238.544V240C85.5093 240.062 85.2871 240.106 85.0547 240.133C84.8291 240.161 84.583 240.174 84.3164 240.174C83.4551 240.174 82.8706 239.956 82.563 239.518C82.2554 239.074 82.1016 238.5 82.1016 237.795V230.525H80.6147V229.018H82.1016V225.952ZM87.5771 224.886H89.4229V230.505C89.8604 229.951 90.2534 229.562 90.6021 229.336C91.1968 228.946 91.9385 228.751 92.8271 228.751C94.4199 228.751 95.5 229.309 96.0674 230.423C96.375 231.031 96.5288 231.875 96.5288 232.956V240H94.6318V233.079C94.6318 232.272 94.5293 231.681 94.3242 231.305C93.9893 230.703 93.3604 230.402 92.4375 230.402C91.6719 230.402 90.978 230.666 90.356 231.192C89.7339 231.718 89.4229 232.713 89.4229 234.176V240H87.5771V224.886ZM105.306 224.937H108.229L112.556 237.672L116.852 224.937H119.744V240H117.806V231.11C117.806 230.802 117.812 230.293 117.826 229.582C117.84 228.871 117.847 228.109 117.847 227.295L113.55 240H111.53L107.203 227.295V227.757C107.203 228.126 107.21 228.69 107.224 229.449C107.244 230.201 107.254 230.754 107.254 231.11V240H105.306V224.937ZM124.02 237.078C124.02 237.611 124.214 238.031 124.604 238.339C124.994 238.646 125.455 238.8 125.988 238.8C126.638 238.8 127.267 238.65 127.875 238.349C128.9 237.85 129.413 237.033 129.413 235.898V234.412C129.188 234.555 128.897 234.675 128.542 234.771C128.186 234.866 127.837 234.935 127.496 234.976L126.378 235.119C125.708 235.208 125.206 235.348 124.871 235.54C124.303 235.861 124.02 236.374 124.02 237.078ZM128.49 233.345C128.914 233.291 129.198 233.113 129.341 232.812C129.423 232.648 129.464 232.412 129.464 232.104C129.464 231.476 129.239 231.021 128.788 230.741C128.343 230.454 127.704 230.31 126.87 230.31C125.906 230.31 125.223 230.57 124.819 231.089C124.594 231.376 124.447 231.804 124.378 232.371H122.656C122.69 231.018 123.127 230.078 123.968 229.551C124.816 229.018 125.797 228.751 126.911 228.751C128.203 228.751 129.252 228.998 130.059 229.49C130.859 229.982 131.259 230.748 131.259 231.787V238.113C131.259 238.305 131.296 238.458 131.372 238.575C131.454 238.691 131.621 238.749 131.874 238.749C131.956 238.749 132.048 238.746 132.151 238.739C132.253 238.725 132.363 238.708 132.479 238.688V240.051C132.192 240.133 131.973 240.185 131.823 240.205C131.672 240.226 131.467 240.236 131.208 240.236C130.572 240.236 130.11 240.01 129.823 239.559C129.673 239.32 129.567 238.981 129.505 238.544C129.129 239.036 128.589 239.463 127.885 239.826C127.181 240.188 126.405 240.369 125.558 240.369C124.539 240.369 123.705 240.062 123.056 239.446C122.413 238.824 122.092 238.048 122.092 237.119C122.092 236.1 122.41 235.311 123.045 234.75C123.681 234.189 124.515 233.844 125.547 233.714L128.49 233.345ZM134.345 229.018H136.099V230.915C136.242 230.546 136.594 230.098 137.155 229.572C137.715 229.039 138.361 228.772 139.093 228.772C139.127 228.772 139.185 228.775 139.267 228.782C139.349 228.789 139.489 228.803 139.688 228.823V230.771C139.578 230.751 139.476 230.737 139.38 230.73C139.291 230.724 139.192 230.72 139.083 230.72C138.153 230.72 137.438 231.021 136.939 231.623C136.44 232.217 136.191 232.904 136.191 233.684V240H134.345V229.018ZM145.522 228.7C146.759 228.7 147.764 229.001 148.537 229.603C149.316 230.204 149.784 231.24 149.941 232.709H148.147C148.038 232.033 147.788 231.472 147.398 231.028C147.009 230.577 146.383 230.351 145.522 230.351C144.346 230.351 143.505 230.925 143 232.074C142.671 232.819 142.507 233.738 142.507 234.832C142.507 235.933 142.74 236.859 143.205 237.611C143.669 238.363 144.401 238.739 145.399 238.739C146.165 238.739 146.77 238.506 147.214 238.042C147.665 237.57 147.976 236.927 148.147 236.114H149.941C149.736 237.57 149.224 238.636 148.403 239.313C147.583 239.983 146.534 240.318 145.255 240.318C143.82 240.318 142.675 239.795 141.82 238.749C140.966 237.696 140.539 236.384 140.539 234.812C140.539 232.884 141.007 231.383 141.943 230.31C142.88 229.237 144.073 228.7 145.522 228.7ZM151.787 224.886H153.633V230.505C154.07 229.951 154.463 229.562 154.812 229.336C155.407 228.946 156.148 228.751 157.037 228.751C158.63 228.751 159.71 229.309 160.277 230.423C160.585 231.031 160.739 231.875 160.739 232.956V240H158.842V233.079C158.842 232.272 158.739 231.681 158.534 231.305C158.199 230.703 157.57 230.402 156.647 230.402C155.882 230.402 155.188 230.666 154.566 231.192C153.944 231.718 153.633 232.713 153.633 234.176V240H151.787V224.886ZM168.624 240C168.692 238.735 168.952 237.635 169.403 236.698C169.861 235.762 170.75 234.911 172.069 234.145L174.038 233.007C174.92 232.494 175.539 232.057 175.894 231.694C176.455 231.127 176.735 230.478 176.735 229.746C176.735 228.892 176.479 228.215 175.966 227.716C175.453 227.21 174.77 226.957 173.915 226.957C172.65 226.957 171.775 227.436 171.29 228.393C171.03 228.905 170.887 229.616 170.859 230.525H168.983C169.003 229.247 169.239 228.205 169.69 227.398C170.49 225.976 171.902 225.265 173.925 225.265C175.607 225.265 176.834 225.72 177.606 226.629C178.386 227.538 178.775 228.55 178.775 229.664C178.775 230.84 178.362 231.845 177.535 232.679C177.056 233.164 176.198 233.752 174.961 234.442L173.556 235.222C172.886 235.591 172.36 235.943 171.977 236.278C171.293 236.873 170.863 237.532 170.685 238.257H178.704V240H168.624ZM185.338 225.316C187.238 225.316 188.612 226.099 189.46 227.665C190.116 228.875 190.444 230.532 190.444 232.638C190.444 234.634 190.147 236.285 189.552 237.59C188.691 239.463 187.283 240.4 185.328 240.4C183.564 240.4 182.251 239.634 181.39 238.103C180.672 236.825 180.313 235.109 180.313 232.956C180.313 231.288 180.529 229.855 180.959 228.659C181.766 226.431 183.226 225.316 185.338 225.316ZM185.317 238.718C186.274 238.718 187.037 238.294 187.604 237.447C188.171 236.599 188.455 235.02 188.455 232.709C188.455 231.042 188.25 229.671 187.84 228.598C187.43 227.518 186.633 226.978 185.451 226.978C184.364 226.978 183.567 227.49 183.062 228.516C182.562 229.534 182.313 231.038 182.313 233.027C182.313 234.524 182.474 235.728 182.795 236.637C183.287 238.024 184.128 238.718 185.317 238.718ZM192.003 240C192.071 238.735 192.331 237.635 192.782 236.698C193.24 235.762 194.129 234.911 195.448 234.145L197.417 233.007C198.299 232.494 198.917 232.057 199.273 231.694C199.833 231.127 200.114 230.478 200.114 229.746C200.114 228.892 199.857 228.215 199.345 227.716C198.832 227.21 198.148 226.957 197.294 226.957C196.029 226.957 195.154 227.436 194.669 228.393C194.409 228.905 194.266 229.616 194.238 230.525H192.362C192.382 229.247 192.618 228.205 193.069 227.398C193.869 225.976 195.281 225.265 197.304 225.265C198.986 225.265 200.213 225.72 200.985 226.629C201.765 227.538 202.154 228.55 202.154 229.664C202.154 230.84 201.741 231.845 200.914 232.679C200.435 233.164 199.577 233.752 198.34 234.442L196.935 235.222C196.265 235.591 195.739 235.943 195.356 236.278C194.672 236.873 194.242 237.532 194.064 238.257H202.083V240H192.003ZM203.692 240C203.761 238.735 204.021 237.635 204.472 236.698C204.93 235.762 205.818 234.911 207.138 234.145L209.106 233.007C209.988 232.494 210.607 232.057 210.962 231.694C211.523 231.127 211.803 230.478 211.803 229.746C211.803 228.892 211.547 228.215 211.034 227.716C210.521 227.21 209.838 226.957 208.983 226.957C207.719 226.957 206.844 227.436 206.358 228.393C206.099 228.905 205.955 229.616 205.928 230.525H204.051C204.072 229.247 204.308 228.205 204.759 227.398C205.559 225.976 206.97 225.265 208.994 225.265C210.675 225.265 211.902 225.72 212.675 226.629C213.454 227.538 213.844 228.55 213.844 229.664C213.844 230.84 213.43 231.845 212.603 232.679C212.125 233.164 211.267 233.752 210.029 234.442L208.625 235.222C207.955 235.591 207.428 235.943 207.045 236.278C206.362 236.873 205.931 237.532 205.753 238.257H213.772V240H203.692Z" fill="white"/>
<rect x="347" y="203" width="217" height="60" rx="10" fill="#E62B1E"/>
<rect x="22.5" y="203.5" width="541" height="59" rx="9.5" stroke="#E62B1E"/>
<path d="M385.107 231.92V226.096H389.639C390.651 226.082 391.505 226.267 392.203 226.649C392.551 226.841 392.825 227.128 393.023 227.511C393.221 227.887 393.32 228.355 393.32 228.916C393.307 229.961 392.948 230.724 392.244 231.202C391.546 231.681 390.651 231.92 389.557 231.92H385.107ZM389.598 233.13C389.796 233.13 389.981 233.13 390.152 233.13C390.316 233.13 390.483 233.144 390.654 233.171C390.976 233.219 391.27 233.304 391.536 233.427C391.816 233.55 392.045 233.738 392.223 233.991C392.394 234.23 392.521 234.562 392.603 234.986C392.657 235.266 392.708 235.628 392.756 236.073C392.784 236.524 392.804 237.006 392.818 237.519C392.859 238.011 392.914 238.476 392.982 238.913C393.037 239.357 393.136 239.72 393.279 240H394.848V239.856C394.67 239.727 394.53 239.439 394.428 238.995C394.332 238.53 394.264 237.744 394.223 236.637C394.236 236.233 394.223 235.823 394.182 235.406C394.141 234.982 394.055 234.583 393.925 234.207C393.816 233.831 393.635 233.492 393.382 233.191C393.115 232.918 392.75 232.703 392.285 232.545C393.953 231.875 394.773 230.645 394.746 228.854C394.718 226.174 393.002 224.852 389.598 224.886H383.682V240H385.107V233.13H389.598ZM398.293 233.807C398.423 232.74 398.789 231.838 399.391 231.1C399.992 230.354 400.847 229.975 401.954 229.961C403.082 229.975 403.94 230.348 404.528 231.079C405.102 231.79 405.389 232.699 405.389 233.807H398.293ZM406.732 234.853C406.637 230.867 405.044 228.861 401.954 228.833C400.382 228.861 399.162 229.418 398.293 230.505C397.398 231.599 396.95 232.966 396.95 234.606C396.937 236.24 397.336 237.583 398.15 238.636C398.963 239.716 400.231 240.27 401.954 240.297C403.321 240.284 404.377 239.932 405.123 239.241C405.847 238.571 406.356 237.71 406.65 236.657H405.246C404.781 238.312 403.684 239.146 401.954 239.159C400.744 239.146 399.832 238.718 399.216 237.877C398.601 237.064 398.293 236.056 398.293 234.853H406.732ZM417.612 234.606C417.612 235.851 417.287 236.914 416.638 237.795C415.995 238.691 415.093 239.146 413.931 239.159C412.632 239.146 411.682 238.657 411.08 237.693C410.465 236.784 410.178 235.628 410.219 234.227C410.26 232.853 410.622 231.797 411.306 231.059C411.982 230.327 412.857 229.961 413.931 229.961C415.134 229.975 416.05 230.416 416.679 231.284C417.301 232.152 417.612 233.26 417.612 234.606ZM417.612 231.038H417.561C417.185 230.307 416.648 229.753 415.951 229.377C415.233 229.015 414.512 228.833 413.787 228.833C412.064 228.847 410.81 229.391 410.024 230.464C409.245 231.53 408.862 232.891 408.875 234.545C408.875 236.097 409.272 237.426 410.065 238.534C410.851 239.682 412.071 240.27 413.726 240.297C414.519 240.297 415.26 240.113 415.951 239.744C416.634 239.409 417.188 238.913 417.612 238.257C417.639 238.872 417.615 239.48 417.54 240.082C417.458 240.67 417.284 241.21 417.017 241.702C416.75 242.194 416.361 242.577 415.848 242.851C415.329 243.145 414.635 243.302 413.767 243.322C413.008 243.322 412.328 243.189 411.726 242.922C411.125 242.656 410.718 242.123 410.506 241.323H409.163C409.19 241.644 409.296 241.979 409.48 242.328C409.665 242.697 409.945 243.042 410.321 243.363C411.032 244.061 412.181 244.423 413.767 244.45C415.797 244.423 417.167 243.862 417.878 242.769C418.569 241.723 418.897 240.451 418.863 238.954V229.121H417.612V231.038ZM423.498 240V229.121H422.236V240H423.498ZM423.559 226.752V224.886H422.175V226.752H423.559ZM426.174 236.596C426.242 237.648 426.628 238.517 427.333 239.2C428.03 239.918 429.024 240.284 430.316 240.297C431.615 240.297 432.678 240.024 433.505 239.477C434.319 238.944 434.732 238.158 434.746 237.119C434.746 236.592 434.654 236.151 434.469 235.796C434.271 235.434 434.004 235.14 433.669 234.914C433.348 234.682 432.979 234.494 432.562 234.35C432.138 234.213 431.704 234.094 431.26 233.991C430.364 233.813 429.571 233.578 428.881 233.284C428.546 233.126 428.283 232.935 428.091 232.709C427.879 232.477 427.773 232.183 427.773 231.828C427.787 230.625 428.604 230.002 430.224 229.961C431.024 229.961 431.69 230.129 432.224 230.464C432.743 230.812 433.058 231.407 433.167 232.248H434.449C434.073 229.924 432.671 228.786 430.245 228.833C429.042 228.847 428.112 229.134 427.456 229.695C426.772 230.262 426.43 231.011 426.43 231.94C426.43 232.453 426.533 232.887 426.738 233.243C426.936 233.591 427.203 233.878 427.538 234.104C427.873 234.309 428.252 234.477 428.676 234.606C428.888 234.675 429.096 234.729 429.301 234.771C429.5 234.825 429.705 234.89 429.917 234.965C430.361 235.047 430.795 235.129 431.219 235.211C431.424 235.252 431.625 235.307 431.824 235.375C432.022 235.437 432.189 235.509 432.326 235.591C432.661 235.728 432.928 235.922 433.126 236.175C433.311 236.428 433.403 236.75 433.403 237.139C433.403 237.686 433.184 238.151 432.747 238.534C432.316 238.937 431.639 239.146 430.716 239.159C428.877 239.2 427.791 238.346 427.456 236.596H426.174ZM441.042 239.016C440.707 239.111 440.365 239.159 440.017 239.159C439.511 239.159 439.203 239.033 439.094 238.78C438.964 238.527 438.906 238.144 438.919 237.631V230.177H440.96V229.121H438.919V226.096H437.658V229.121H436.13V230.177H437.658V238.134C437.658 238.913 437.836 239.474 438.191 239.815C438.513 240.137 438.981 240.297 439.596 240.297C439.917 240.284 440.205 240.239 440.458 240.164C440.697 240.109 440.892 240.068 441.042 240.041V239.016ZM443.841 233.807C443.971 232.74 444.337 231.838 444.938 231.1C445.54 230.354 446.395 229.975 447.502 229.961C448.63 229.975 449.488 230.348 450.076 231.079C450.65 231.79 450.937 232.699 450.937 233.807H443.841ZM452.28 234.853C452.185 230.867 450.592 228.861 447.502 228.833C445.93 228.861 444.709 229.418 443.841 230.505C442.946 231.599 442.498 232.966 442.498 234.606C442.484 236.24 442.884 237.583 443.698 238.636C444.511 239.716 445.779 240.27 447.502 240.297C448.869 240.284 449.925 239.932 450.67 239.241C451.395 238.571 451.904 237.71 452.198 236.657H450.793C450.329 238.312 449.231 239.146 447.502 239.159C446.292 239.146 445.379 238.718 444.764 237.877C444.149 237.064 443.841 236.056 443.841 234.853H452.28ZM456.074 234.668C456.061 233.41 456.307 232.347 456.812 231.479C457.332 230.625 458.286 230.197 459.673 230.197V228.833C458.778 228.833 458.05 229.001 457.489 229.336C456.929 229.685 456.474 230.293 456.125 231.161H456.074V229.121H454.823V240H456.074V234.668ZM477.905 240H479.566V224.886H478.13V238.093H478.089L469.353 224.886H467.743V240H469.168V226.813H469.209L477.905 240ZM487.092 240.297C488.651 240.284 489.878 239.75 490.773 238.698C491.669 237.693 492.124 236.315 492.137 234.565C492.137 232.925 491.724 231.564 490.896 230.484C490.056 229.411 488.788 228.861 487.092 228.833C485.417 228.861 484.16 229.411 483.319 230.484C482.478 231.564 482.058 232.925 482.058 234.565C482.071 236.452 482.567 237.871 483.544 238.821C484.481 239.792 485.664 240.284 487.092 240.297ZM490.794 234.565C490.794 235.769 490.514 236.825 489.953 237.734C489.365 238.67 488.412 239.146 487.092 239.159C485.889 239.146 484.98 238.711 484.365 237.857C483.722 237.03 483.401 235.933 483.401 234.565C483.401 233.342 483.688 232.275 484.262 231.366C484.836 230.457 485.78 229.989 487.092 229.961C488.425 229.975 489.379 230.416 489.953 231.284C490.527 232.152 490.808 233.246 490.794 234.565ZM503.652 238.318L501.263 229.121H499.858L497.336 238.4L494.526 229.121H493.265L496.577 240H498.095L500.504 230.864H500.545L502.924 240H504.268L507.795 229.121H506.513L503.652 238.318Z" fill="white"/>
<path d="M531 240L538 233L531 226" stroke="white" stroke-width="1.5" stroke-linecap="round" stroke-linejoin="round"/>
</svg>
