<svg width="280" height="89" viewBox="0 0 280 89" fill="none" xmlns="http://www.w3.org/2000/svg">
<g opacity="0.2">
<path d="M27.8125 57.4791L40.7917 44.5L27.8125 31.5208" stroke="#E62B1E" stroke-width="1.5" stroke-linecap="round" stroke-linejoin="round"/>
<path d="M50.0625 57.4791L63.0417 44.5L50.0625 31.5208" stroke="#E62B1E" stroke-width="1.5" stroke-linecap="round" stroke-linejoin="round"/>
</g>
<g opacity="0.4">
<path d="M77.8125 57.4791L90.7917 44.5L77.8125 31.5208" stroke="#E62B1E" stroke-width="1.5" stroke-linecap="round" stroke-linejoin="round"/>
<path d="M100.063 57.4791L113.042 44.5L100.063 31.5208" stroke="#E62B1E" stroke-width="1.5" stroke-linecap="round" stroke-linejoin="round"/>
</g>
<g opacity="0.6">
<path d="M122.813 57.4791L135.792 44.5L122.813 31.5208" stroke="#E62B1E" stroke-width="1.5" stroke-linecap="round" stroke-linejoin="round"/>
<path d="M145.063 57.4791L158.042 44.5L145.063 31.5208" stroke="#E62B1E" stroke-width="1.5" stroke-linecap="round" stroke-linejoin="round"/>
</g>
<g opacity="0.8">
<path d="M170.813 57.4791L183.792 44.5L170.813 31.5208" stroke="#E62B1E" stroke-width="1.5" stroke-linecap="round" stroke-linejoin="round"/>
<path d="M193.063 57.4791L206.042 44.5L193.063 31.5208" stroke="#E62B1E" stroke-width="1.5" stroke-linecap="round" stroke-linejoin="round"/>
</g>
<path d="M218.812 57.4791L231.792 44.5L218.812 31.5208" stroke="#E62B1E" stroke-width="1.5" stroke-linecap="round" stroke-linejoin="round"/>
<path d="M241.062 57.4791L254.042 44.5L241.062 31.5208" stroke="#E62B1E" stroke-width="1.5" stroke-linecap="round" stroke-linejoin="round"/>
</svg>
