<svg width="1646" height="1646" viewBox="0 0 1646 1646" fill="none" xmlns="http://www.w3.org/2000/svg">
<g opacity="0.6">
<g style="mix-blend-mode:screen">
<path style="mix-blend-mode:screen" d="M1339.36 991.734L1341.07 990.027L1271.91 920.878L741.425 924.079L660.229 1005.27L369.525 1007.03L349.98 1036.2L189.385 1037.17L189.37 1039.57L351.248 1038.59L370.796 1009.42L661.209 1007.67L742.404 926.474L1270.9 923.284L1339.36 991.734Z" fill="url(#paint0_radial_127_158)"/>
<g style="mix-blend-mode:screen">
<path style="mix-blend-mode:screen" d="M1280.45 734.179L1342.02 672.608L1340.33 670.921L1279.47 731.785L874.871 734.228L758.974 618.345L393.256 620.552L327.089 686.72L191.495 687.538L191.48 689.938L328.069 689.114L394.236 622.946L757.965 620.751L873.862 736.633L1280.45 734.179Z" fill="url(#paint1_radial_127_158)"/>
<path style="mix-blend-mode:screen" d="M1338.51 669.356C1339.02 668.848 1339.66 668.5 1340.36 668.357C1341.06 668.213 1341.79 668.28 1342.45 668.549C1343.1 668.819 1343.67 669.278 1344.06 669.869C1344.45 670.46 1344.66 671.157 1344.65 671.871C1344.65 672.585 1344.43 673.284 1344.03 673.88C1343.63 674.476 1343.07 674.942 1342.41 675.219C1341.74 675.497 1341.02 675.572 1340.32 675.437C1339.62 675.302 1338.98 674.962 1338.48 674.461C1337.8 673.788 1337.43 672.872 1337.44 671.915C1337.44 670.957 1337.83 670.037 1338.51 669.356Z" fill="url(#paint2_radial_127_158)"/>
</g>
<path style="mix-blend-mode:screen" d="M1484.95 949.148L1486.66 947.441L1455.79 916.574L1354.65 917.185L1312.54 875.08L720.604 878.653L641.402 957.868L376.316 959.467L334.212 1001.57L154.772 1002.65L154.758 1005.05L335.192 1003.96L377.296 961.861L642.382 960.262L721.584 881.047L1311.53 877.486L1353.64 919.592L1454.78 918.98L1484.95 949.148Z" fill="url(#paint3_radial_127_158)"/>
<path style="mix-blend-mode:screen" d="M1512.73 728.286L1548.66 692.356L1546.98 690.67L1511.75 725.893L1338.85 726.938L1284.21 781.575L861.67 784.124L735.884 658.338L406.029 660.328L355.895 710.462L144.567 711.739L144.552 714.139L356.875 712.856L407.01 662.722L734.875 660.744L860.661 786.53L1285.19 783.969L1339.83 729.332L1512.73 728.286Z" fill="url(#paint4_radial_127_158)"/>
<g style="mix-blend-mode:screen">
<path style="mix-blend-mode:screen" d="M1319.48 824.626L1355.83 788.265L1354.14 786.579L1318.5 822.232L849.79 825.063L730.267 705.522L443.618 707.253L396.825 754.059L166.882 755.449L166.867 757.849L397.805 756.453L444.598 709.647L729.26 707.93L848.781 827.469L1319.48 824.626Z" fill="url(#paint5_radial_127_158)"/>
<path style="mix-blend-mode:screen" d="M1352.32 785.014C1352.83 784.506 1353.47 784.158 1354.17 784.014C1354.88 783.871 1355.6 783.938 1356.26 784.207C1356.92 784.476 1357.48 784.935 1357.87 785.526C1358.26 786.117 1358.47 786.814 1358.47 787.528C1358.46 788.242 1358.25 788.941 1357.85 789.537C1357.45 790.133 1356.88 790.599 1356.22 790.876C1355.56 791.154 1354.83 791.23 1354.13 791.095C1353.43 790.96 1352.79 790.62 1352.29 790.118C1351.62 789.446 1351.24 788.53 1351.25 787.573C1351.25 786.615 1351.64 785.695 1352.32 785.014Z" fill="url(#paint6_radial_127_158)"/>
</g>
<g style="mix-blend-mode:screen">
<path style="mix-blend-mode:screen" d="M602.902 906.679L602.917 904.279L388.6 905.569L316.424 977.759L125.024 978.916L125.009 981.316L317.404 980.153L389.58 907.963L602.902 906.679Z" fill="url(#paint7_radial_127_158)"/>
<path style="mix-blend-mode:screen" d="M602.751 901.868C603.465 901.864 604.161 902.071 604.753 902.464C605.344 902.857 605.803 903.418 606.073 904.076C606.342 904.734 606.409 905.46 606.265 906.161C606.122 906.862 605.774 907.507 605.266 908.015C604.758 908.523 604.113 908.871 603.412 909.015C602.711 909.158 601.985 909.091 601.327 908.822C600.669 908.552 600.108 908.093 599.715 907.502C599.322 906.91 599.115 906.214 599.119 905.5C599.125 904.542 599.511 903.622 600.192 902.941C600.873 902.26 601.793 901.874 602.751 901.868Z" fill="url(#paint8_radial_127_158)"/>
</g>
<g style="mix-blend-mode:screen">
<path style="mix-blend-mode:screen" d="M712.26 842.245L712.274 839.845L390.994 841.783L302.773 930.007L165.852 930.833L165.838 933.233L303.751 932.403L391.972 844.178L712.26 842.245Z" fill="url(#paint9_radial_127_158)"/>
<path style="mix-blend-mode:screen" d="M712.109 837.436C712.823 837.432 713.519 837.639 714.111 838.032C714.702 838.426 715.161 838.986 715.43 839.644C715.7 840.302 715.767 841.028 715.623 841.729C715.48 842.43 715.132 843.075 714.624 843.583C714.116 844.091 713.471 844.439 712.77 844.582C712.069 844.726 711.343 844.658 710.686 844.389C710.028 844.12 709.467 843.661 709.074 843.069C708.681 842.478 708.473 841.782 708.477 841.068C708.483 840.11 708.869 839.19 709.55 838.509C710.231 837.828 711.151 837.442 712.109 837.436Z" fill="url(#paint10_radial_127_158)"/>
</g>
<g style="mix-blend-mode:screen">
<path style="mix-blend-mode:screen" d="M723.919 806.844L725.626 805.136L676.837 756.347L464.581 757.629L428.485 793.724L177.303 795.239L177.289 797.639L429.465 796.118L465.561 760.023L675.828 758.753L723.919 806.844Z" fill="url(#paint11_radial_127_158)"/>
<path style="mix-blend-mode:screen" d="M727.183 808.4C725.765 809.819 723.48 809.832 722.078 808.431C720.677 807.03 720.691 804.745 722.109 803.326C723.527 801.908 725.813 801.894 727.214 803.296C728.615 804.697 728.602 806.982 727.183 808.4Z" fill="url(#paint12_radial_127_158)"/>
</g>
<path style="mix-blend-mode:screen" d="M1266.61 1044.14L1268.32 1042.43L1195.12 969.234L743.458 971.96L664.529 1050.89L431.266 1052.3L431.252 1054.7L665.509 1053.28L744.438 974.354L1194.11 971.639L1266.61 1044.14Z" fill="url(#paint13_radial_127_158)"/>
<g style="mix-blend-mode:screen">
<path style="mix-blend-mode:screen" d="M759.86 1021.12L1169 1018.65L1168.98 1021.05L759.846 1023.52L759.86 1021.12Z" fill="url(#paint14_radial_127_158)"/>
<path style="mix-blend-mode:screen" d="M760.055 1018.71C759.341 1018.72 758.642 1018.93 758.046 1019.33C757.45 1019.73 756.984 1020.3 756.707 1020.96C756.43 1021.62 756.354 1022.35 756.489 1023.05C756.624 1023.75 756.964 1024.39 757.466 1024.89C757.967 1025.39 758.609 1025.73 759.308 1025.87C760.007 1026 760.733 1025.93 761.395 1025.65C762.056 1025.37 762.622 1024.9 763.023 1024.31C763.423 1023.71 763.639 1023.01 763.643 1022.3C763.649 1021.34 763.274 1020.43 762.601 1019.75C761.928 1019.08 761.013 1018.71 760.055 1018.71Z" fill="url(#paint15_radial_127_158)"/>
</g>
</g>
<g style="mix-blend-mode:screen">
<g style="mix-blend-mode:screen">
<path style="mix-blend-mode:screen" d="M1175.17 911.527L1177.73 908.966L1142.97 874.213L860.097 875.922L816.948 919.071L662.318 920.004L651.932 935.503L570.53 935.994L570.508 939.595L653.836 939.091L664.223 923.592L818.418 922.662L861.567 879.513L1141.46 877.821L1175.17 911.527Z" fill="url(#paint16_radial_127_158)"/>
<path style="mix-blend-mode:screen" d="M570.823 932.379C569.752 932.386 568.703 932.71 567.809 933.31C566.915 933.91 566.216 934.76 565.8 935.752C565.384 936.744 565.271 937.833 565.473 938.882C565.676 939.931 566.186 940.893 566.938 941.646C567.691 942.398 568.653 942.908 569.702 943.111C570.751 943.313 571.84 943.2 572.832 942.784C573.824 942.368 574.674 941.669 575.274 940.775C575.874 939.881 576.198 938.832 576.205 937.761C576.213 936.325 575.651 934.952 574.642 933.942C573.633 932.933 572.259 932.371 570.823 932.379Z" fill="url(#paint17_radial_127_158)"/>
<path style="mix-blend-mode:screen" d="M1180.11 906.204C1180.87 906.957 1181.38 907.918 1181.58 908.967C1181.78 910.016 1181.67 911.106 1181.25 912.098C1180.84 913.089 1180.14 913.939 1179.24 914.54C1178.35 915.14 1177.3 915.464 1176.23 915.471C1175.16 915.477 1174.11 915.166 1173.23 914.576C1172.34 913.987 1171.65 913.145 1171.25 912.159C1170.84 911.172 1170.74 910.084 1170.96 909.032C1171.17 907.98 1171.69 907.013 1172.46 906.251C1173.48 905.229 1174.86 904.65 1176.29 904.642C1177.73 904.633 1179.1 905.195 1180.11 906.204Z" fill="url(#paint18_radial_127_158)"/>
</g>
<g style="mix-blend-mode:screen">
<path style="mix-blend-mode:screen" d="M1147.5 777.32L1178.2 746.62L1175.67 744.09L1146.03 773.729L931.978 775.021L870.385 713.439L675.07 714.618L639.908 749.779L571.652 750.193L571.632 753.793L641.377 753.372L676.54 718.208L868.873 717.049L930.464 778.63L1147.5 777.32Z" fill="url(#paint19_radial_127_158)"/>
<path style="mix-blend-mode:screen" d="M571.945 746.577C570.874 746.583 569.825 746.907 568.931 747.507C568.037 748.108 567.338 748.958 566.922 749.949C566.506 750.941 566.393 752.031 566.595 753.08C566.798 754.129 567.308 755.09 568.06 755.843C568.813 756.596 569.775 757.106 570.824 757.308C571.873 757.511 572.962 757.397 573.954 756.981C574.946 756.565 575.796 755.866 576.396 754.972C576.996 754.078 577.32 753.03 577.327 751.959C577.335 750.523 576.773 749.149 575.764 748.14C574.754 747.131 573.381 746.568 571.945 746.577Z" fill="url(#paint20_radial_127_158)"/>
<path style="mix-blend-mode:screen" d="M1172.93 741.743C1173.7 740.981 1174.66 740.459 1175.72 740.244C1176.77 740.029 1177.86 740.129 1178.84 740.533C1179.83 740.937 1180.67 741.626 1181.26 742.513C1181.85 743.4 1182.16 744.445 1182.15 745.516C1182.15 746.586 1181.82 747.635 1181.22 748.529C1180.62 749.423 1179.77 750.122 1178.78 750.538C1177.79 750.954 1176.7 751.068 1175.65 750.865C1174.6 750.662 1173.64 750.153 1172.89 749.4C1171.88 748.391 1171.32 747.017 1171.33 745.581C1171.33 744.145 1171.91 742.764 1172.93 741.743Z" fill="url(#paint21_radial_127_158)"/>
</g>
<g style="mix-blend-mode:screen">
<path style="mix-blend-mode:screen" d="M1252.54 888.893L1255.1 886.332L1240.7 871.926L1186.94 872.252L1164.57 849.874L849.033 851.779L806.943 893.876L666.067 894.726L643.693 917.101L552.137 917.655L552.115 921.253L645.163 920.692L667.537 898.317L808.413 897.467L850.503 855.37L1163.05 853.483L1185.43 875.861L1239.18 875.536L1252.54 888.893Z" fill="url(#paint22_radial_127_158)"/>
<path style="mix-blend-mode:screen" d="M552.429 914.038C551.358 914.045 550.309 914.368 549.415 914.969C548.521 915.569 547.822 916.419 547.406 917.411C546.99 918.403 546.877 919.492 547.079 920.541C547.282 921.59 547.792 922.552 548.544 923.304C549.297 924.057 550.259 924.567 551.308 924.77C552.357 924.972 553.446 924.858 554.438 924.443C555.43 924.027 556.28 923.328 556.88 922.434C557.48 921.54 557.804 920.491 557.811 919.42C557.819 917.984 557.257 916.61 556.248 915.601C555.238 914.592 553.865 914.03 552.429 914.038Z" fill="url(#paint23_radial_127_158)"/>
<path style="mix-blend-mode:screen" d="M1257.48 883.573C1258.24 884.325 1258.75 885.287 1258.95 886.336C1259.15 887.385 1259.04 888.474 1258.62 889.466C1258.21 890.458 1257.51 891.308 1256.61 891.908C1255.72 892.508 1254.67 892.832 1253.6 892.839C1252.53 892.845 1251.48 892.534 1250.6 891.945C1249.71 891.355 1249.02 890.514 1248.62 889.527C1248.21 888.54 1248.11 887.452 1248.33 886.4C1248.54 885.349 1249.06 884.381 1249.83 883.619C1250.85 882.597 1252.23 882.019 1253.66 882.01C1255.1 882.001 1256.47 882.563 1257.48 883.573Z" fill="url(#paint24_radial_127_158)"/>
</g>
<g style="mix-blend-mode:screen">
<path style="mix-blend-mode:screen" d="M1270.94 774.191L1288.02 757.116L1285.49 754.586L1269.47 770.6L1177.59 771.153L1148.55 800.188L924.961 801.54L858.115 734.694L681.858 735.756L655.215 762.399L546.712 763.054L546.692 766.654L656.685 765.99L683.328 739.347L856.602 738.302L923.448 805.149L1150.02 803.781L1179.06 774.744L1270.94 774.191Z" fill="url(#paint25_radial_127_158)"/>
<path style="mix-blend-mode:screen" d="M547.006 759.437C545.935 759.444 544.887 759.767 543.993 760.368C543.099 760.968 542.399 761.818 541.984 762.81C541.568 763.801 541.454 764.891 541.656 765.94C541.859 766.989 542.369 767.951 543.121 768.703C543.874 769.456 544.836 769.966 545.885 770.169C546.934 770.371 548.023 770.258 549.015 769.842C550.007 769.426 550.857 768.727 551.457 767.833C552.057 766.939 552.381 765.89 552.388 764.819C552.397 763.383 551.834 762.01 550.825 761C549.816 759.991 548.442 759.429 547.006 759.437Z" fill="url(#paint26_radial_127_158)"/>
<path style="mix-blend-mode:screen" d="M1282.75 752.237C1283.51 751.476 1284.48 750.954 1285.53 750.739C1286.59 750.524 1287.67 750.624 1288.66 751.028C1289.65 751.432 1290.49 752.121 1291.08 753.008C1291.67 753.895 1291.98 754.939 1291.97 756.01C1291.97 757.081 1291.64 758.13 1291.04 759.024C1290.44 759.918 1289.59 760.617 1288.6 761.033C1287.61 761.449 1286.52 761.562 1285.47 761.36C1284.42 761.157 1283.46 760.647 1282.71 759.895C1281.7 758.885 1281.13 757.512 1281.14 756.076C1281.15 754.64 1281.73 753.259 1282.75 752.237Z" fill="url(#paint27_radial_127_158)"/>
</g>
<g style="mix-blend-mode:screen">
<path style="mix-blend-mode:screen" d="M1168.24 825.386L1185.54 808.084L1183.01 805.553L1166.77 821.795L918.649 823.294L855.131 759.766L701.834 760.693L676.968 785.566L558.572 786.282L558.549 789.882L678.437 789.158L703.304 764.284L853.619 763.377L917.135 826.903L1168.24 825.386Z" fill="url(#paint28_radial_127_158)"/>
<path style="mix-blend-mode:screen" d="M558.865 782.666C557.794 782.672 556.745 782.996 555.851 783.596C554.957 784.197 554.258 785.047 553.842 786.038C553.426 787.03 553.312 788.12 553.515 789.169C553.717 790.218 554.227 791.179 554.98 791.932C555.733 792.685 556.694 793.195 557.743 793.397C558.792 793.6 559.882 793.486 560.874 793.07C561.866 792.654 562.715 791.955 563.316 791.061C563.916 790.167 564.24 789.118 564.246 788.048C564.255 786.612 563.693 785.238 562.683 784.229C561.674 783.219 560.301 782.657 558.865 782.666Z" fill="url(#paint29_radial_127_158)"/>
<path style="mix-blend-mode:screen" d="M1180.27 803.208C1181.04 802.446 1182 801.924 1183.06 801.708C1184.11 801.493 1185.19 801.593 1186.18 801.997C1187.17 802.401 1188.01 803.089 1188.6 803.976C1189.19 804.863 1189.5 805.908 1189.5 806.979C1189.49 808.049 1189.17 809.098 1188.57 809.992C1187.96 810.886 1187.12 811.586 1186.12 812.002C1185.13 812.418 1184.04 812.532 1182.99 812.329C1181.94 812.127 1180.98 811.617 1180.23 810.865C1179.22 809.856 1178.66 808.482 1178.67 807.046C1178.67 805.61 1179.25 804.229 1180.27 803.208Z" fill="url(#paint30_radial_127_158)"/>
</g>
<g style="mix-blend-mode:screen">
<path style="mix-blend-mode:screen" d="M783.628 869.015L783.65 865.413L672.596 866.085L634.24 904.448L536.328 905.039L536.306 908.637L635.71 908.039L674.066 869.676L783.628 869.015Z" fill="url(#paint31_radial_127_158)"/>
<path style="mix-blend-mode:screen" d="M536.62 901.423C535.549 901.429 534.5 901.753 533.606 902.353C532.712 902.953 532.013 903.803 531.597 904.795C531.182 905.787 531.068 906.876 531.27 907.925C531.473 908.974 531.983 909.936 532.735 910.689C533.488 911.441 534.45 911.951 535.499 912.154C536.548 912.356 537.637 912.243 538.629 911.827C539.621 911.411 540.471 910.712 541.071 909.818C541.671 908.924 541.995 907.875 542.002 906.805C542.01 905.369 541.448 903.995 540.439 902.986C539.43 901.976 538.056 901.414 536.62 901.423Z" fill="url(#paint32_radial_127_158)"/>
<path style="mix-blend-mode:screen" d="M783.401 861.802C784.472 861.795 785.517 862.106 786.404 862.696C787.291 863.286 787.98 864.127 788.384 865.114C788.787 866.101 788.888 867.189 788.673 868.24C788.458 869.292 787.936 870.26 787.174 871.022C786.412 871.784 785.445 872.305 784.393 872.52C783.341 872.736 782.253 872.635 781.266 872.231C780.28 871.827 779.438 871.138 778.848 870.252C778.259 869.365 777.948 868.32 777.954 867.249C777.963 865.813 778.542 864.432 779.563 863.411C780.585 862.389 781.965 861.81 783.401 861.802Z" fill="url(#paint33_radial_127_158)"/>
</g>
<g style="mix-blend-mode:screen">
<path style="mix-blend-mode:screen" d="M841.743 834.773L841.766 831.174L673.868 832.187L626.985 879.07L558.024 879.487L558.002 883.088L628.455 882.661L675.338 835.778L841.743 834.773Z" fill="url(#paint34_radial_127_158)"/>
<path style="mix-blend-mode:screen" d="M558.318 875.87C557.247 875.877 556.198 876.2 555.304 876.801C554.41 877.401 553.711 878.251 553.295 879.243C552.879 880.234 552.765 881.324 552.968 882.373C553.17 883.422 553.68 884.384 554.433 885.137C555.185 885.889 556.147 886.399 557.196 886.602C558.245 886.805 559.334 886.691 560.326 886.275C561.318 885.859 562.168 885.16 562.769 884.266C563.369 883.372 563.693 882.323 563.699 881.252C563.708 879.816 563.146 878.443 562.137 877.434C561.127 876.424 559.754 875.862 558.318 875.87Z" fill="url(#paint35_radial_127_158)"/>
<path style="mix-blend-mode:screen" d="M841.517 827.56C842.588 827.554 843.633 827.865 844.52 828.455C845.407 829.044 846.096 829.886 846.5 830.873C846.904 831.86 847.004 832.948 846.789 833.999C846.574 835.051 846.052 836.019 845.29 836.781C844.529 837.542 843.561 838.064 842.509 838.279C841.457 838.494 840.369 838.394 839.382 837.99C838.396 837.586 837.554 836.897 836.965 836.01C836.375 835.123 836.064 834.079 836.07 833.008C836.079 831.572 836.658 830.191 837.679 829.169C838.701 828.148 840.081 827.569 841.517 827.56Z" fill="url(#paint36_radial_127_158)"/>
</g>
<g style="mix-blend-mode:screen">
<path style="mix-blend-mode:screen" d="M848.107 813.271L850.668 810.71L826.736 786.779L712.974 787.464L693.792 806.645L564.11 807.43L564.088 811.028L695.263 810.236L714.444 791.054L825.223 790.387L848.107 813.271Z" fill="url(#paint37_radial_127_158)"/>
<path style="mix-blend-mode:screen" d="M564.403 803.812C563.332 803.819 562.284 804.143 561.39 804.743C560.496 805.343 559.797 806.193 559.381 807.185C558.965 808.177 558.851 809.266 559.054 810.315C559.256 811.364 559.766 812.326 560.519 813.079C561.272 813.831 562.233 814.341 563.282 814.544C564.331 814.746 565.421 814.632 566.412 814.217C567.404 813.801 568.254 813.102 568.854 812.208C569.455 811.314 569.779 810.265 569.785 809.194C569.794 807.758 569.231 806.385 568.222 805.375C567.213 804.366 565.839 803.804 564.403 803.812Z" fill="url(#paint38_radial_127_158)"/>
<path style="mix-blend-mode:screen" d="M853.05 807.948C853.803 808.7 854.313 809.662 854.515 810.711C854.718 811.76 854.604 812.849 854.188 813.841C853.773 814.833 853.073 815.683 852.179 816.283C851.285 816.884 850.237 817.207 849.166 817.214C848.095 817.22 847.05 816.909 846.163 816.32C845.276 815.73 844.587 814.889 844.184 813.902C843.78 812.915 843.679 811.827 843.894 810.775C844.11 809.724 844.631 808.756 845.393 807.994C846.414 806.972 847.795 806.394 849.231 806.385C850.667 806.376 852.041 806.938 853.05 807.948Z" fill="url(#paint39_radial_127_158)"/>
</g>
<g style="mix-blend-mode:screen">
<path style="mix-blend-mode:screen" d="M643.977 837.667L641.447 835.137L627.164 849.413L565.263 849.786L565.242 853.388L628.634 853.004L643.977 837.667Z" fill="url(#paint40_radial_127_158)"/>
<path style="mix-blend-mode:screen" d="M565.556 846.171C564.485 846.178 563.436 846.501 562.542 847.102C561.648 847.702 560.949 848.552 560.533 849.544C560.118 850.536 560.004 851.625 560.206 852.674C560.409 853.723 560.919 854.685 561.672 855.437C562.424 856.19 563.386 856.7 564.435 856.903C565.484 857.105 566.573 856.991 567.565 856.576C568.557 856.16 569.407 855.461 570.007 854.567C570.608 853.673 570.931 852.624 570.938 851.553C570.946 850.117 570.384 848.743 569.375 847.734C568.366 846.725 566.992 846.163 565.556 846.171Z" fill="url(#paint41_radial_127_158)"/>
<path style="mix-blend-mode:screen" d="M638.715 832.788C639.477 832.027 640.445 831.505 641.496 831.29C642.548 831.075 643.636 831.176 644.623 831.58C645.61 831.984 646.451 832.673 647.04 833.56C647.63 834.447 647.941 835.492 647.934 836.563C647.927 837.634 647.603 838.683 647.003 839.577C646.402 840.471 645.552 841.17 644.56 841.585C643.568 842.001 642.479 842.114 641.43 841.911C640.381 841.709 639.419 841.199 638.667 840.446C637.658 839.436 637.096 838.062 637.105 836.626C637.114 835.19 637.693 833.81 638.715 832.788Z" fill="url(#paint42_radial_127_158)"/>
</g>
<g style="mix-blend-mode:screen">
<path style="mix-blend-mode:screen" d="M1136.51 939.377L1139.07 936.815L1102.17 899.911L861.179 901.366L819.234 943.311L699.073 944.038L699.051 947.636L820.704 946.902L862.649 904.957L1100.65 903.52L1136.51 939.377Z" fill="url(#paint43_radial_127_158)"/>
<path style="mix-blend-mode:screen" d="M699.365 940.421C698.295 940.427 697.246 940.751 696.352 941.351C695.458 941.952 694.759 942.801 694.343 943.793C693.927 944.785 693.813 945.874 694.016 946.923C694.219 947.972 694.728 948.934 695.481 949.687C696.234 950.439 697.195 950.949 698.244 951.152C699.294 951.354 700.383 951.241 701.375 950.825C702.366 950.409 703.216 949.71 703.817 948.816C704.417 947.922 704.741 946.873 704.747 945.802C704.756 944.366 704.194 942.993 703.184 941.983C702.175 940.974 700.801 940.412 699.365 940.421Z" fill="url(#paint44_radial_127_158)"/>
<path style="mix-blend-mode:screen" d="M1141.45 934.055C1142.2 934.807 1142.71 935.769 1142.92 936.818C1143.12 937.867 1143 938.956 1142.59 939.948C1142.17 940.94 1141.47 941.79 1140.58 942.39C1139.69 942.991 1138.64 943.314 1137.57 943.321C1136.5 943.327 1135.45 943.016 1134.56 942.426C1133.68 941.837 1132.99 940.995 1132.58 940.008C1132.18 939.022 1132.08 937.933 1132.29 936.882C1132.51 935.83 1133.03 934.863 1133.79 934.101C1134.82 933.079 1136.2 932.501 1137.63 932.492C1139.07 932.483 1140.44 933.046 1141.45 934.055Z" fill="url(#paint45_radial_127_158)"/>
</g>
<g style="mix-blend-mode:screen">
<path style="mix-blend-mode:screen" d="M873.697 927.469L1084.48 926.197L1084.46 929.797L873.676 931.069L873.697 927.469Z" fill="url(#paint46_radial_127_158)"/>
<path style="mix-blend-mode:screen" d="M873.99 923.853C872.919 923.859 871.87 924.183 870.976 924.784C870.082 925.384 869.383 926.234 868.967 927.226C868.552 928.218 868.438 929.307 868.64 930.356C868.843 931.405 869.353 932.367 870.106 933.119C870.858 933.872 871.82 934.382 872.869 934.584C873.918 934.787 875.007 934.673 875.999 934.257C876.991 933.842 877.841 933.143 878.441 932.249C879.042 931.355 879.365 930.306 879.372 929.235C879.38 927.799 878.818 926.425 877.809 925.416C876.8 924.407 875.426 923.844 873.99 923.853Z" fill="url(#paint47_radial_127_158)"/>
<path style="mix-blend-mode:screen" d="M1084.23 922.584C1085.3 922.577 1086.35 922.888 1087.24 923.478C1088.12 924.068 1088.81 924.909 1089.22 925.896C1089.62 926.883 1089.72 927.971 1089.5 929.023C1089.29 930.074 1088.77 931.042 1088.01 931.804C1087.24 932.566 1086.28 933.087 1085.22 933.302C1084.17 933.518 1083.09 933.417 1082.1 933.013C1081.11 932.609 1080.27 931.92 1079.68 931.034C1079.09 930.147 1078.78 929.102 1078.79 928.031C1078.79 926.595 1079.37 925.214 1080.4 924.193C1081.42 923.171 1082.8 922.592 1084.23 922.584Z" fill="url(#paint48_radial_127_158)"/>
</g>
</g>
</g>
<defs>
<radialGradient id="paint0_radial_127_158" cx="0" cy="0" r="1" gradientUnits="userSpaceOnUse" gradientTransform="translate(763.761 1015.06) rotate(135) scale(412.543 407.592)">
<stop offset="0.23515" stop-color="#8C1600"/>
<stop offset="0.70253" stop-color="#560E00"/>
<stop offset="1" stop-color="#390900"/>
</radialGradient>
<radialGradient id="paint1_radial_127_158" cx="0" cy="0" r="1" gradientUnits="userSpaceOnUse" gradientTransform="translate(-189447 279416) rotate(135) scale(140724 136835)">
<stop offset="0.23515" stop-color="#8C1600"/>
<stop offset="0.70253" stop-color="#560E00"/>
<stop offset="1" stop-color="#390900"/>
</radialGradient>
<radialGradient id="paint2_radial_127_158" cx="0" cy="0" r="1" gradientUnits="userSpaceOnUse" gradientTransform="translate(-324.544 3128.57) rotate(135) scale(1238.43 1223.57)">
<stop offset="0.23515" stop-color="#8C1600"/>
<stop offset="0.70253" stop-color="#560E00"/>
<stop offset="1" stop-color="#390900"/>
</radialGradient>
<radialGradient id="paint3_radial_127_158" cx="0" cy="0" r="1" gradientUnits="userSpaceOnUse" gradientTransform="translate(-211440 445435) rotate(135) scale(193955 178204)">
<stop offset="0.23515" stop-color="#8C1600"/>
<stop offset="0.70253" stop-color="#560E00"/>
<stop offset="1" stop-color="#390900"/>
</radialGradient>
<radialGradient id="paint4_radial_127_158" cx="0" cy="0" r="1" gradientUnits="userSpaceOnUse" gradientTransform="translate(-198480 349764) rotate(135) scale(209475 203425)">
<stop offset="0.23515" stop-color="#8C1600"/>
<stop offset="0.70253" stop-color="#560E00"/>
<stop offset="1" stop-color="#390900"/>
</radialGradient>
<radialGradient id="paint5_radial_127_158" cx="0" cy="0" r="1" gradientUnits="userSpaceOnUse" gradientTransform="translate(-185065 313123) rotate(135) scale(144336 152214)">
<stop offset="0.23515" stop-color="#8C1600"/>
<stop offset="0.70253" stop-color="#560E00"/>
<stop offset="1" stop-color="#390900"/>
</radialGradient>
<radialGradient id="paint6_radial_127_158" cx="0" cy="0" r="1" gradientUnits="userSpaceOnUse" gradientTransform="translate(-326.933 3520.28) rotate(135) scale(1280.37 1265.03)">
<stop offset="0.23515" stop-color="#8C1600"/>
<stop offset="0.70253" stop-color="#560E00"/>
<stop offset="1" stop-color="#390900"/>
</radialGradient>
<radialGradient id="paint7_radial_127_158" cx="0" cy="0" r="1" gradientUnits="userSpaceOnUse" gradientTransform="translate(-157537 173829) rotate(135) scale(28437 20786.3)">
<stop offset="0.23515" stop-color="#8C1600"/>
<stop offset="0.70253" stop-color="#560E00"/>
<stop offset="1" stop-color="#390900"/>
</radialGradient>
<radialGradient id="paint8_radial_127_158" cx="0" cy="0" r="1" gradientUnits="userSpaceOnUse" gradientTransform="translate(-2271.35 4154.46) rotate(135) scale(526.393 520.053)">
<stop offset="0.23515" stop-color="#8C1600"/>
<stop offset="0.70253" stop-color="#560E00"/>
<stop offset="1" stop-color="#390900"/>
</radialGradient>
<radialGradient id="paint9_radial_127_158" cx="0" cy="0" r="1" gradientUnits="userSpaceOnUse" gradientTransform="translate(-168213 189008) rotate(135) scale(37455.4 26800.7)">
<stop offset="0.23515" stop-color="#8C1600"/>
<stop offset="0.70253" stop-color="#560E00"/>
<stop offset="1" stop-color="#390900"/>
</radialGradient>
<radialGradient id="paint10_radial_127_158" cx="0" cy="0" r="1" gradientUnits="userSpaceOnUse" gradientTransform="translate(-1935.86 3920.53) rotate(135) scale(601.286 594.062)">
<stop offset="0.23515" stop-color="#8C1600"/>
<stop offset="0.70253" stop-color="#560E00"/>
<stop offset="1" stop-color="#390900"/>
</radialGradient>
<radialGradient id="paint11_radial_127_158" cx="0" cy="0" r="1" gradientUnits="userSpaceOnUse" gradientTransform="translate(-136939 149812) rotate(135) scale(31300.9 32306.8)">
<stop offset="0.23515" stop-color="#8C1600"/>
<stop offset="0.70253" stop-color="#560E00"/>
<stop offset="1" stop-color="#390900"/>
</radialGradient>
<radialGradient id="paint12_radial_127_158" cx="0" cy="0" r="1" gradientUnits="userSpaceOnUse" gradientTransform="translate(-1889.31 3631.1) rotate(135) scale(594.445 587.309)">
<stop offset="0.23515" stop-color="#8C1600"/>
<stop offset="0.70253" stop-color="#560E00"/>
<stop offset="1" stop-color="#390900"/>
</radialGradient>
<radialGradient id="paint13_radial_127_158" cx="0" cy="0" r="1" gradientUnits="userSpaceOnUse" gradientTransform="translate(-117582 294786) rotate(135) scale(74734.2 72785.9)">
<stop offset="0.23515" stop-color="#8C1600"/>
<stop offset="0.70253" stop-color="#560E00"/>
<stop offset="1" stop-color="#390900"/>
</radialGradient>
<radialGradient id="paint14_radial_127_158" cx="0" cy="0" r="1" gradientUnits="userSpaceOnUse" gradientTransform="translate(-127618 130406) rotate(135) scale(25367.5 147.011)">
<stop offset="0.23515" stop-color="#8C1600"/>
<stop offset="0.70253" stop-color="#560E00"/>
<stop offset="1" stop-color="#390900"/>
</radialGradient>
<radialGradient id="paint15_radial_127_158" cx="0" cy="0" r="1" gradientUnits="userSpaceOnUse" gradientTransform="translate(-307.626 4506.36) rotate(135) scale(447.589 442.23)">
<stop offset="0.23515" stop-color="#8C1600"/>
<stop offset="0.70253" stop-color="#560E00"/>
<stop offset="1" stop-color="#390900"/>
</radialGradient>
<radialGradient id="paint16_radial_127_158" cx="0" cy="0" r="1" gradientUnits="userSpaceOnUse" gradientTransform="translate(872.462 925.209) rotate(135) scale(219.821 217.184)">
<stop offset="0.2104" stop-color="#E42400"/>
<stop offset="0.53971" stop-color="#8F1700"/>
<stop offset="0.85525" stop-color="#440B00"/>
<stop offset="1" stop-color="#260600"/>
</radialGradient>
<radialGradient id="paint17_radial_127_158" cx="0" cy="0" r="1" gradientUnits="userSpaceOnUse" gradientTransform="translate(-1445.71 5731.5) rotate(135) scale(991.773 979.874)">
<stop offset="0.2104" stop-color="#E42400"/>
<stop offset="0.53971" stop-color="#8F1700"/>
<stop offset="0.85525" stop-color="#440B00"/>
<stop offset="1" stop-color="#260600"/>
</radialGradient>
<radialGradient id="paint18_radial_127_158" cx="0" cy="0" r="1" gradientUnits="userSpaceOnUse" gradientTransform="translate(-840.236 5703.76) rotate(135) scale(991.763 979.867)">
<stop offset="0.2104" stop-color="#E42400"/>
<stop offset="0.53971" stop-color="#8F1700"/>
<stop offset="0.85525" stop-color="#440B00"/>
<stop offset="1" stop-color="#260600"/>
</radialGradient>
<radialGradient id="paint19_radial_127_158" cx="0" cy="0" r="1" gradientUnits="userSpaceOnUse" gradientTransform="translate(-79528 159546) rotate(135) scale(39451.4 38759.4)">
<stop offset="0.2104" stop-color="#E42400"/>
<stop offset="0.53971" stop-color="#8F1700"/>
<stop offset="0.85525" stop-color="#440B00"/>
<stop offset="1" stop-color="#260600"/>
</radialGradient>
<radialGradient id="paint20_radial_127_158" cx="0" cy="0" r="1" gradientUnits="userSpaceOnUse" gradientTransform="translate(-1440.81 4743.82) rotate(135) scale(990.345 978.495)">
<stop offset="0.2104" stop-color="#E42400"/>
<stop offset="0.53971" stop-color="#8F1700"/>
<stop offset="0.85525" stop-color="#440B00"/>
<stop offset="1" stop-color="#260600"/>
</radialGradient>
<radialGradient id="paint21_radial_127_158" cx="0" cy="0" r="1" gradientUnits="userSpaceOnUse" gradientTransform="translate(-836.142 4737.53) rotate(135) scale(990.4 978.503)">
<stop offset="0.2104" stop-color="#E42400"/>
<stop offset="0.53971" stop-color="#8F1700"/>
<stop offset="0.85525" stop-color="#440B00"/>
<stop offset="1" stop-color="#260600"/>
</radialGradient>
<radialGradient id="paint22_radial_127_158" cx="0" cy="0" r="1" gradientUnits="userSpaceOnUse" gradientTransform="translate(-94618.1 220753) rotate(135) scale(54863.9 49937)">
<stop offset="0.2104" stop-color="#E42400"/>
<stop offset="0.53971" stop-color="#8F1700"/>
<stop offset="0.85525" stop-color="#440B00"/>
<stop offset="1" stop-color="#260600"/>
</radialGradient>
<radialGradient id="paint23_radial_127_158" cx="0" cy="0" r="1" gradientUnits="userSpaceOnUse" gradientTransform="translate(-1330.99 5620.7) rotate(135) scale(1145.51 1131.8)">
<stop offset="0.2104" stop-color="#E42400"/>
<stop offset="0.53971" stop-color="#8F1700"/>
<stop offset="0.85525" stop-color="#440B00"/>
<stop offset="1" stop-color="#260600"/>
</radialGradient>
<radialGradient id="paint24_radial_127_158" cx="0" cy="0" r="1" gradientUnits="userSpaceOnUse" gradientTransform="translate(-629.814 5588.66) rotate(135) scale(1145.51 1131.76)">
<stop offset="0.2104" stop-color="#E42400"/>
<stop offset="0.53971" stop-color="#8F1700"/>
<stop offset="0.85525" stop-color="#440B00"/>
<stop offset="1" stop-color="#260600"/>
</radialGradient>
<radialGradient id="paint25_radial_127_158" cx="0" cy="0" r="1" gradientUnits="userSpaceOnUse" gradientTransform="translate(-88320.7 197401) rotate(135) scale(58804.8 57591.3)">
<stop offset="0.2104" stop-color="#E42400"/>
<stop offset="0.53971" stop-color="#8F1700"/>
<stop offset="0.85525" stop-color="#440B00"/>
<stop offset="1" stop-color="#260600"/>
</radialGradient>
<radialGradient id="paint26_radial_127_158" cx="0" cy="0" r="1" gradientUnits="userSpaceOnUse" gradientTransform="translate(-1274.32 4809.44) rotate(135) scale(1206.61 1192.17)">
<stop offset="0.2104" stop-color="#E42400"/>
<stop offset="0.53971" stop-color="#8F1700"/>
<stop offset="0.85525" stop-color="#440B00"/>
<stop offset="1" stop-color="#260600"/>
</radialGradient>
<radialGradient id="paint27_radial_127_158" cx="0" cy="0" r="1" gradientUnits="userSpaceOnUse" gradientTransform="translate(-534.768 4800.63) rotate(135) scale(1206.61 1192.14)">
<stop offset="0.2104" stop-color="#E42400"/>
<stop offset="0.53971" stop-color="#8F1700"/>
<stop offset="0.85525" stop-color="#440B00"/>
<stop offset="1" stop-color="#260600"/>
</radialGradient>
<radialGradient id="paint28_radial_127_158" cx="0" cy="0" r="1" gradientUnits="userSpaceOnUse" gradientTransform="translate(-75778 170625) rotate(135) scale(40456.8 43114.1)">
<stop offset="0.2104" stop-color="#E42400"/>
<stop offset="0.53971" stop-color="#8F1700"/>
<stop offset="0.85525" stop-color="#440B00"/>
<stop offset="1" stop-color="#260600"/>
</radialGradient>
<radialGradient id="paint29_radial_127_158" cx="0" cy="0" r="1" gradientUnits="userSpaceOnUse" gradientTransform="translate(-1466.91 5000.07) rotate(135) scale(1023.86 1011.59)">
<stop offset="0.2104" stop-color="#E42400"/>
<stop offset="0.53971" stop-color="#8F1700"/>
<stop offset="0.85525" stop-color="#440B00"/>
<stop offset="1" stop-color="#260600"/>
</radialGradient>
<radialGradient id="paint30_radial_127_158" cx="0" cy="0" r="1" gradientUnits="userSpaceOnUse" gradientTransform="translate(-841.712 5019.04) rotate(135) scale(1023.88 1011.59)">
<stop offset="0.2104" stop-color="#E42400"/>
<stop offset="0.53971" stop-color="#8F1700"/>
<stop offset="0.85525" stop-color="#440B00"/>
<stop offset="1" stop-color="#260600"/>
</radialGradient>
<radialGradient id="paint31_radial_127_158" cx="0" cy="0" r="1" gradientUnits="userSpaceOnUse" gradientTransform="translate(-59549.2 83945.4) rotate(135) scale(7982.39 5804.1)">
<stop offset="0.2104" stop-color="#E42400"/>
<stop offset="0.53971" stop-color="#8F1700"/>
<stop offset="0.85525" stop-color="#440B00"/>
<stop offset="1" stop-color="#260600"/>
</radialGradient>
<radialGradient id="paint32_radial_127_158" cx="0" cy="0" r="1" gradientUnits="userSpaceOnUse" gradientTransform="translate(-2438.52 5528.21) rotate(135) scale(423.249 418.177)">
<stop offset="0.2104" stop-color="#E42400"/>
<stop offset="0.53971" stop-color="#8F1700"/>
<stop offset="0.85525" stop-color="#440B00"/>
<stop offset="1" stop-color="#260600"/>
</radialGradient>
<radialGradient id="paint33_radial_127_158" cx="0" cy="0" r="1" gradientUnits="userSpaceOnUse" gradientTransform="translate(-2191.83 5488.69) rotate(135) scale(423.257 418.176)">
<stop offset="0.2104" stop-color="#E42400"/>
<stop offset="0.53971" stop-color="#8F1700"/>
<stop offset="0.85525" stop-color="#440B00"/>
<stop offset="1" stop-color="#260600"/>
</radialGradient>
<radialGradient id="paint34_radial_127_158" cx="0" cy="0" r="1" gradientUnits="userSpaceOnUse" gradientTransform="translate(-65345.7 93460.1) rotate(135) scale(10523.2 7492.57)">
<stop offset="0.2104" stop-color="#E42400"/>
<stop offset="0.53971" stop-color="#8F1700"/>
<stop offset="0.85525" stop-color="#440B00"/>
<stop offset="1" stop-color="#260600"/>
</radialGradient>
<radialGradient id="paint35_radial_127_158" cx="0" cy="0" r="1" gradientUnits="userSpaceOnUse" gradientTransform="translate(-2236.81 5367.86) rotate(135) scale(482.999 477.218)">
<stop offset="0.2104" stop-color="#E42400"/>
<stop offset="0.53971" stop-color="#8F1700"/>
<stop offset="0.85525" stop-color="#440B00"/>
<stop offset="1" stop-color="#260600"/>
</radialGradient>
<radialGradient id="paint36_radial_127_158" cx="0" cy="0" r="1" gradientUnits="userSpaceOnUse" gradientTransform="translate(-1953.66 5319.56) rotate(135) scale(482.998 477.2)">
<stop offset="0.2104" stop-color="#E42400"/>
<stop offset="0.53971" stop-color="#8F1700"/>
<stop offset="0.85525" stop-color="#440B00"/>
<stop offset="1" stop-color="#260600"/>
</radialGradient>
<radialGradient id="paint37_radial_127_158" cx="0" cy="0" r="1" gradientUnits="userSpaceOnUse" gradientTransform="translate(-50534.5 80863.5) rotate(135) scale(8882.54 8973.58)">
<stop offset="0.2104" stop-color="#E42400"/>
<stop offset="0.53971" stop-color="#8F1700"/>
<stop offset="0.85525" stop-color="#440B00"/>
<stop offset="1" stop-color="#260600"/>
</radialGradient>
<radialGradient id="paint38_radial_127_158" cx="0" cy="0" r="1" gradientUnits="userSpaceOnUse" gradientTransform="translate(-2204.32 5091.12) rotate(135) scale(476.995 471.279)">
<stop offset="0.2104" stop-color="#E42400"/>
<stop offset="0.53971" stop-color="#8F1700"/>
<stop offset="0.85525" stop-color="#440B00"/>
<stop offset="1" stop-color="#260600"/>
</radialGradient>
<radialGradient id="paint39_radial_127_158" cx="0" cy="0" r="1" gradientUnits="userSpaceOnUse" gradientTransform="translate(-1919.6 5093.82) rotate(135) scale(477.011 471.286)">
<stop offset="0.2104" stop-color="#E42400"/>
<stop offset="0.53971" stop-color="#8F1700"/>
<stop offset="0.85525" stop-color="#440B00"/>
<stop offset="1" stop-color="#260600"/>
</radialGradient>
<radialGradient id="paint40_radial_127_158" cx="0" cy="0" r="1" gradientUnits="userSpaceOnUse" gradientTransform="translate(-20257.4 26910.2) rotate(135) scale(893.771 630.136)">
<stop offset="0.2104" stop-color="#E42400"/>
<stop offset="0.53971" stop-color="#8F1700"/>
<stop offset="0.85525" stop-color="#440B00"/>
<stop offset="1" stop-color="#260600"/>
</radialGradient>
<radialGradient id="paint41_radial_127_158" cx="0" cy="0" r="1" gradientUnits="userSpaceOnUse" gradientTransform="translate(-2666.8 5273.53) rotate(135) scale(145.79 144.042)">
<stop offset="0.2104" stop-color="#E42400"/>
<stop offset="0.53971" stop-color="#8F1700"/>
<stop offset="0.85525" stop-color="#440B00"/>
<stop offset="1" stop-color="#260600"/>
</radialGradient>
<radialGradient id="paint42_radial_127_158" cx="0" cy="0" r="1" gradientUnits="userSpaceOnUse" gradientTransform="translate(-2589.9 5258.65) rotate(135) scale(145.789 144.041)">
<stop offset="0.2104" stop-color="#E42400"/>
<stop offset="0.53971" stop-color="#8F1700"/>
<stop offset="0.85525" stop-color="#440B00"/>
<stop offset="1" stop-color="#260600"/>
</radialGradient>
<radialGradient id="paint43_radial_127_158" cx="0" cy="0" r="1" gradientUnits="userSpaceOnUse" gradientTransform="translate(-53428.2 142311) rotate(135) scale(21157.4 20309.6)">
<stop offset="0.2104" stop-color="#E42400"/>
<stop offset="0.53971" stop-color="#8F1700"/>
<stop offset="0.85525" stop-color="#440B00"/>
<stop offset="1" stop-color="#260600"/>
</radialGradient>
<radialGradient id="paint44_radial_127_158" cx="0" cy="0" r="1" gradientUnits="userSpaceOnUse" gradientTransform="translate(-1114.3 5820.34) rotate(135) scale(723.005 714.348)">
<stop offset="0.2104" stop-color="#E42400"/>
<stop offset="0.53971" stop-color="#8F1700"/>
<stop offset="0.85525" stop-color="#440B00"/>
<stop offset="1" stop-color="#260600"/>
</radialGradient>
<radialGradient id="paint45_radial_127_158" cx="0" cy="0" r="1" gradientUnits="userSpaceOnUse" gradientTransform="translate(-676.162 5812.57) rotate(135) scale(723.041 714.364)">
<stop offset="0.2104" stop-color="#E42400"/>
<stop offset="0.53971" stop-color="#8F1700"/>
<stop offset="0.85525" stop-color="#440B00"/>
<stop offset="1" stop-color="#260600"/>
</radialGradient>
<radialGradient id="paint46_radial_127_158" cx="0" cy="0" r="1" gradientUnits="userSpaceOnUse" gradientTransform="translate(-60224.9 63221.1) rotate(135) scale(7017.87 118.419)">
<stop offset="0.2104" stop-color="#E42400"/>
<stop offset="0.53971" stop-color="#8F1700"/>
<stop offset="0.85525" stop-color="#440B00"/>
<stop offset="1" stop-color="#260600"/>
</radialGradient>
<radialGradient id="paint47_radial_127_158" cx="0" cy="0" r="1" gradientUnits="userSpaceOnUse" gradientTransform="translate(-661.476 5738.36) rotate(135) scale(360.537 356.217)">
<stop offset="0.2104" stop-color="#E42400"/>
<stop offset="0.53971" stop-color="#8F1700"/>
<stop offset="0.85525" stop-color="#440B00"/>
<stop offset="1" stop-color="#260600"/>
</radialGradient>
<radialGradient id="paint48_radial_127_158" cx="0" cy="0" r="1" gradientUnits="userSpaceOnUse" gradientTransform="translate(-451.33 5737.16) rotate(135) scale(360.545 356.211)">
<stop offset="0.2104" stop-color="#E42400"/>
<stop offset="0.53971" stop-color="#8F1700"/>
<stop offset="0.85525" stop-color="#440B00"/>
<stop offset="1" stop-color="#260600"/>
</radialGradient>
</defs>
</svg>
