<svg width="288" height="113" viewBox="0 0 288 113" fill="none" xmlns="http://www.w3.org/2000/svg">
<path d="M0.804688 6.42578H3.30664V21H0.804688V6.42578ZM0.804688 0.916016H3.30664V3.70508H0.804688V0.916016ZM7.03906 6.35742H9.37695V8.43555C10.0697 7.57878 10.8034 6.96354 11.5781 6.58984C12.3529 6.21615 13.2142 6.0293 14.1621 6.0293C16.2402 6.0293 17.6439 6.75391 18.373 8.20312C18.7741 8.99609 18.9746 10.1309 18.9746 11.6074V21H16.4727V11.7715C16.4727 10.8783 16.3405 10.1582 16.0762 9.61133C15.6387 8.69987 14.8457 8.24414 13.6973 8.24414C13.1139 8.24414 12.6354 8.30339 12.2617 8.42188C11.5872 8.6224 10.9948 9.02344 10.4844 9.625C10.0742 10.1081 9.80534 10.6094 9.67773 11.1289C9.55924 11.6393 9.5 12.373 9.5 13.3301V21H7.03906V6.35742ZM23.1172 2.26953H25.6055V6.35742H27.9434V8.36719H25.6055V17.9238C25.6055 18.4342 25.7786 18.776 26.125 18.9492C26.3164 19.0495 26.6354 19.0996 27.082 19.0996C27.2005 19.0996 27.3281 19.0996 27.4648 19.0996C27.6016 19.0905 27.7611 19.0768 27.9434 19.0586V21C27.6608 21.082 27.3646 21.1413 27.0547 21.1777C26.7539 21.2142 26.4258 21.2324 26.0703 21.2324C24.9219 21.2324 24.1426 20.9408 23.7324 20.3574C23.3223 19.765 23.1172 18.9993 23.1172 18.0605V8.36719H21.1348V6.35742H23.1172V2.26953ZM30.4863 6.35742H32.8242V8.88672C33.0156 8.39453 33.485 7.79753 34.2324 7.0957C34.9798 6.38477 35.8411 6.0293 36.8164 6.0293C36.862 6.0293 36.9395 6.03385 37.0488 6.04297C37.1582 6.05208 37.3451 6.07031 37.6094 6.09766V8.69531C37.4635 8.66797 37.3268 8.64974 37.1992 8.64062C37.0807 8.63151 36.9486 8.62695 36.8027 8.62695C35.5632 8.62695 34.6107 9.02799 33.9453 9.83008C33.2799 10.623 32.9473 11.5391 32.9473 12.5781V21H30.4863V6.35742ZM45.5527 19.4141C47.1842 19.4141 48.3008 18.7988 48.9023 17.5684C49.513 16.3288 49.8184 14.9525 49.8184 13.4395C49.8184 12.0723 49.5996 10.9603 49.1621 10.1035C48.4694 8.75456 47.2754 8.08008 45.5801 8.08008C44.0762 8.08008 42.9824 8.6543 42.2988 9.80273C41.6152 10.9512 41.2734 12.3366 41.2734 13.959C41.2734 15.5176 41.6152 16.8164 42.2988 17.8555C42.9824 18.8945 44.0671 19.4141 45.5527 19.4141ZM45.6484 5.93359C47.5352 5.93359 49.1302 6.5625 50.4336 7.82031C51.737 9.07812 52.3887 10.9284 52.3887 13.3711C52.3887 15.7318 51.8145 17.6823 50.666 19.2227C49.5176 20.763 47.7357 21.5332 45.3203 21.5332C43.306 21.5332 41.7064 20.8542 40.5215 19.4961C39.3366 18.1289 38.7441 16.2969 38.7441 14C38.7441 11.5391 39.3685 9.57943 40.6172 8.12109C41.8659 6.66276 43.543 5.93359 45.6484 5.93359ZM56.8867 13.8496C56.8867 15.4173 57.2194 16.7298 57.8848 17.7871C58.5501 18.8444 59.6165 19.373 61.084 19.373C62.2233 19.373 63.1576 18.8854 63.8867 17.9102C64.625 16.9258 64.9941 15.5176 64.9941 13.6855C64.9941 11.8353 64.6159 10.4681 63.8594 9.58398C63.1029 8.69076 62.1686 8.24414 61.0566 8.24414C59.8171 8.24414 58.8099 8.7181 58.0352 9.66602C57.2695 10.6139 56.8867 12.0085 56.8867 13.8496ZM60.5918 6.09766C61.7129 6.09766 62.6517 6.33464 63.4082 6.80859C63.8457 7.08203 64.3424 7.56055 64.8984 8.24414V0.847656H67.2637V21H65.0488V18.9629C64.4746 19.8652 63.7956 20.5169 63.0117 20.918C62.2279 21.319 61.3301 21.5195 60.3184 21.5195C58.6868 21.5195 57.2741 20.8359 56.0801 19.4688C54.8861 18.0924 54.2891 16.265 54.2891 13.9863C54.2891 11.8535 54.8314 10.0078 55.916 8.44922C57.0098 6.88151 58.5684 6.09766 60.5918 6.09766ZM73.375 6.35742V16.0781C73.375 16.8255 73.4935 17.4362 73.7305 17.9102C74.168 18.7852 74.9837 19.2227 76.1777 19.2227C77.8913 19.2227 79.0579 18.457 79.6777 16.9258C80.015 16.1055 80.1836 14.9798 80.1836 13.5488V6.35742H82.6445V21H80.3203L80.3477 18.8398C80.0286 19.3958 79.6322 19.8652 79.1582 20.248C78.2194 21.0137 77.0801 21.3965 75.7402 21.3965C73.653 21.3965 72.2311 20.6992 71.4746 19.3047C71.0645 18.5573 70.8594 17.5592 70.8594 16.3105V6.35742H73.375ZM92.1465 5.93359C93.7962 5.93359 95.1361 6.33464 96.166 7.13672C97.2051 7.9388 97.8294 9.31966 98.0391 11.2793H95.6465C95.5007 10.377 95.168 9.62956 94.6484 9.03711C94.1289 8.43555 93.2949 8.13477 92.1465 8.13477C90.5788 8.13477 89.4577 8.90039 88.7832 10.4316C88.3457 11.4251 88.127 12.651 88.127 14.1094C88.127 15.5768 88.4368 16.8118 89.0566 17.8145C89.6764 18.8171 90.6517 19.3184 91.9824 19.3184C93.0033 19.3184 93.8099 19.0085 94.4023 18.3887C95.0039 17.7598 95.4186 16.903 95.6465 15.8184H98.0391C97.7656 17.7598 97.082 19.1816 95.9883 20.084C94.8945 20.9772 93.4954 21.4238 91.791 21.4238C89.877 21.4238 88.3503 20.7266 87.2109 19.332C86.0716 17.9284 85.502 16.1784 85.502 14.082C85.502 11.5117 86.1263 9.51107 87.375 8.08008C88.6237 6.64909 90.2142 5.93359 92.1465 5.93359ZM100.5 6.42578H103.002V21H100.5V6.42578ZM100.5 0.916016H103.002V3.70508H100.5V0.916016ZM106.734 6.35742H109.072V8.43555C109.765 7.57878 110.499 6.96354 111.273 6.58984C112.048 6.21615 112.91 6.0293 113.857 6.0293C115.936 6.0293 117.339 6.75391 118.068 8.20312C118.469 8.99609 118.67 10.1309 118.67 11.6074V21H116.168V11.7715C116.168 10.8783 116.036 10.1582 115.771 9.61133C115.334 8.69987 114.541 8.24414 113.393 8.24414C112.809 8.24414 112.331 8.30339 111.957 8.42188C111.283 8.6224 110.69 9.02344 110.18 9.625C109.77 10.1081 109.501 10.6094 109.373 11.1289C109.255 11.6393 109.195 12.373 109.195 13.3301V21H106.734V6.35742ZM127.488 6.09766C128.637 6.09766 129.639 6.38021 130.496 6.94531C130.961 7.26432 131.435 7.72917 131.918 8.33984V6.49414H134.188V19.8105C134.188 21.6699 133.914 23.1374 133.367 24.2129C132.346 26.1999 130.419 27.1934 127.584 27.1934C126.007 27.1934 124.681 26.8379 123.605 26.127C122.53 25.4251 121.928 24.3223 121.801 22.8184H124.303C124.421 23.4746 124.658 23.9805 125.014 24.3359C125.57 24.8828 126.445 25.1562 127.639 25.1562C129.525 25.1562 130.76 24.4909 131.344 23.1602C131.69 22.3763 131.85 20.9772 131.822 18.9629C131.33 19.7103 130.738 20.2663 130.045 20.6309C129.352 20.9954 128.436 21.1777 127.297 21.1777C125.711 21.1777 124.321 20.6172 123.127 19.4961C121.942 18.3659 121.35 16.502 121.35 13.9043C121.35 11.4525 121.947 9.53841 123.141 8.16211C124.344 6.78581 125.793 6.09766 127.488 6.09766ZM131.918 13.6172C131.918 11.8034 131.544 10.459 130.797 9.58398C130.049 8.70898 129.097 8.27148 127.939 8.27148C126.208 8.27148 125.023 9.08268 124.385 10.7051C124.048 11.571 123.879 12.7057 123.879 14.1094C123.879 15.7591 124.212 17.0169 124.877 17.8828C125.551 18.7396 126.454 19.168 127.584 19.168C129.352 19.168 130.596 18.3704 131.316 16.7754C131.717 15.873 131.918 14.8203 131.918 13.6172ZM151.51 19.4141C153.141 19.4141 154.258 18.7988 154.859 17.5684C155.47 16.3288 155.775 14.9525 155.775 13.4395C155.775 12.0723 155.557 10.9603 155.119 10.1035C154.426 8.75456 153.232 8.08008 151.537 8.08008C150.033 8.08008 148.939 8.6543 148.256 9.80273C147.572 10.9512 147.23 12.3366 147.23 13.959C147.23 15.5176 147.572 16.8164 148.256 17.8555C148.939 18.8945 150.024 19.4141 151.51 19.4141ZM151.605 5.93359C153.492 5.93359 155.087 6.5625 156.391 7.82031C157.694 9.07812 158.346 10.9284 158.346 13.3711C158.346 15.7318 157.771 17.6823 156.623 19.2227C155.475 20.763 153.693 21.5332 151.277 21.5332C149.263 21.5332 147.663 20.8542 146.479 19.4961C145.294 18.1289 144.701 16.2969 144.701 14C144.701 11.5391 145.326 9.57943 146.574 8.12109C147.823 6.66276 149.5 5.93359 151.605 5.93359ZM163.746 6.35742V16.0781C163.746 16.8255 163.865 17.4362 164.102 17.9102C164.539 18.7852 165.355 19.2227 166.549 19.2227C168.262 19.2227 169.429 18.457 170.049 16.9258C170.386 16.1055 170.555 14.9798 170.555 13.5488V6.35742H173.016V21H170.691L170.719 18.8398C170.4 19.3958 170.003 19.8652 169.529 20.248C168.59 21.0137 167.451 21.3965 166.111 21.3965C164.024 21.3965 162.602 20.6992 161.846 19.3047C161.436 18.5573 161.23 17.5592 161.23 16.3105V6.35742H163.746ZM176.939 6.35742H179.277V8.88672C179.469 8.39453 179.938 7.79753 180.686 7.0957C181.433 6.38477 182.294 6.0293 183.27 6.0293C183.315 6.0293 183.393 6.03385 183.502 6.04297C183.611 6.05208 183.798 6.07031 184.062 6.09766V8.69531C183.917 8.66797 183.78 8.64974 183.652 8.64062C183.534 8.63151 183.402 8.62695 183.256 8.62695C182.016 8.62695 181.064 9.02799 180.398 9.83008C179.733 10.623 179.4 11.5391 179.4 12.5781V21H176.939V6.35742ZM10.6138 86.6152C10.8101 88.2728 11.2354 89.4505 11.8896 90.1484C13.0456 91.3916 15.1829 92.0132 18.3018 92.0132C20.1338 92.0132 21.5841 91.7406 22.6528 91.1953C23.7433 90.6501 24.2886 89.8322 24.2886 88.7417C24.2886 87.6948 23.8524 86.8988 22.98 86.3535C22.1076 85.8083 18.8688 84.8704 13.2637 83.54C9.22884 82.5368 6.38265 81.2827 4.7251 79.7778C3.06755 78.2948 2.23877 76.1574 2.23877 73.3657C2.23877 70.0724 3.52555 67.248 6.09912 64.8926C8.6945 62.5153 12.3368 61.3267 17.0259 61.3267C21.4751 61.3267 25.0955 62.2209 27.8872 64.0093C30.7007 65.7759 32.3146 68.8402 32.729 73.2021H23.4053C23.2744 72.0026 22.9364 71.0539 22.3911 70.356C21.366 69.091 19.6213 68.4585 17.1567 68.4585C15.1284 68.4585 13.6781 68.7747 12.8057 69.4072C11.9551 70.0397 11.5298 70.7812 11.5298 71.6318C11.5298 72.7005 11.9878 73.4748 12.9038 73.9546C13.8198 74.4562 17.0586 75.3177 22.6201 76.5391C26.3278 77.4115 29.1086 78.731 30.9624 80.4976C32.7944 82.286 33.7104 84.5215 33.7104 87.2041C33.7104 90.7373 32.391 93.6271 29.752 95.8735C27.1348 98.0981 23.0781 99.2104 17.582 99.2104C11.9769 99.2104 7.83301 98.0327 5.15039 95.6772C2.48958 93.3 1.15918 90.2793 1.15918 86.6152H10.6138ZM65.2148 80.1704C65.2148 77.4224 64.5824 74.9906 63.3174 72.875C62.0742 70.7594 60.0459 69.7017 57.2324 69.7017C53.8519 69.7017 51.5291 71.3047 50.2642 74.5107C49.6099 76.2119 49.2827 78.3711 49.2827 80.9883C49.2827 85.1322 50.3841 88.0438 52.5869 89.7231C53.8955 90.7046 55.444 91.1953 57.2324 91.1953C59.8278 91.1953 61.8016 90.1921 63.1538 88.1855C64.5278 86.179 65.2148 83.5073 65.2148 80.1704ZM59.915 61.5557C64.0807 61.5557 67.603 63.0933 70.4819 66.1685C73.3826 69.2437 74.833 73.7583 74.833 79.7124C74.833 85.9937 73.4154 90.7809 70.5801 94.0742C67.7666 97.3675 64.1353 99.0142 59.686 99.0142C56.8507 99.0142 54.4953 98.3053 52.6196 96.8877C51.5946 96.1025 50.5913 94.9575 49.6099 93.4526V112.035H40.3843V62.3408H49.3154V67.6079C50.3187 66.0594 51.3874 64.8381 52.5215 63.9438C54.5934 62.3517 57.0579 61.5557 59.915 61.5557ZM95.6724 69.0801C93.5132 69.0801 91.8338 69.7562 90.6343 71.1084C89.4565 72.4606 88.715 74.2926 88.4097 76.6045H102.902C102.75 74.14 101.997 72.2752 100.645 71.0103C99.3146 69.7235 97.6571 69.0801 95.6724 69.0801ZM95.6724 61.3921C98.6385 61.3921 101.31 61.9482 103.688 63.0605C106.065 64.1729 108.028 65.9285 109.576 68.3276C110.972 70.4432 111.877 72.8968 112.292 75.6885C112.531 77.3242 112.63 79.6797 112.586 82.7549H88.1807C88.3115 86.3317 89.4347 88.8398 91.5503 90.2793C92.8371 91.1735 94.3856 91.6206 96.1958 91.6206C98.1151 91.6206 99.6745 91.0754 100.874 89.9849C101.528 89.396 102.106 88.5781 102.608 87.5312H112.128C111.888 89.6468 110.787 91.7951 108.824 93.9761C105.77 97.4438 101.496 99.1777 95.9995 99.1777C91.4631 99.1777 87.4609 97.7165 83.9932 94.7939C80.5254 91.8714 78.7915 87.1169 78.7915 80.5303C78.7915 74.3581 80.3509 69.6253 83.4697 66.332C86.6104 63.0387 90.6779 61.3921 95.6724 61.3921ZM138.562 80.6611C137.973 81.0319 137.373 81.3372 136.762 81.5771C136.173 81.7952 135.355 82.0024 134.309 82.1987L132.215 82.5913C130.252 82.9403 128.845 83.3656 127.995 83.8672C126.555 84.7178 125.835 86.0373 125.835 87.8257C125.835 89.4178 126.272 90.5737 127.144 91.2935C128.038 91.9914 129.118 92.3403 130.383 92.3403C132.389 92.3403 134.232 91.7515 135.912 90.5737C137.613 89.396 138.496 87.2477 138.562 84.1289V80.6611ZM132.902 76.3101C134.625 76.092 135.857 75.8193 136.599 75.4922C137.929 74.9251 138.594 74.0418 138.594 72.8423C138.594 71.381 138.082 70.3778 137.057 69.8325C136.053 69.2655 134.57 68.9819 132.607 68.9819C130.405 68.9819 128.845 69.5272 127.929 70.6177C127.275 71.4246 126.839 72.5151 126.621 73.8892H117.624C117.82 70.7703 118.693 68.2077 120.241 66.2012C122.706 63.0605 126.937 61.4902 132.935 61.4902C136.839 61.4902 140.306 62.2645 143.338 63.813C146.369 65.3615 147.885 68.284 147.885 72.5806V88.938C147.885 90.0721 147.907 91.4461 147.951 93.0601C148.016 94.2814 148.201 95.1102 148.507 95.5464C148.812 95.9826 149.27 96.3424 149.881 96.626V98H139.739C139.456 97.2803 139.259 96.6042 139.15 95.9717C139.041 95.3392 138.954 94.6195 138.889 93.8125C137.602 95.2083 136.119 96.397 134.439 97.3784C132.433 98.5343 130.165 99.1123 127.635 99.1123C124.407 99.1123 121.735 98.1963 119.62 96.3643C117.526 94.5104 116.479 91.8932 116.479 88.5127C116.479 84.1289 118.169 80.9556 121.55 78.9927C123.404 77.924 126.13 77.1606 129.729 76.7026L132.902 76.3101ZM156.097 49.9419H165.257V75.9175L176.871 62.5044H188.419L175.955 76.1465L188.91 98H177.656L169.117 82.7549L165.257 86.7788V98H156.097V49.9419ZM207.557 69.0801C205.398 69.0801 203.719 69.7562 202.519 71.1084C201.341 72.4606 200.6 74.2926 200.294 76.6045H214.787C214.634 74.14 213.882 72.2752 212.53 71.0103C211.199 69.7235 209.542 69.0801 207.557 69.0801ZM207.557 61.3921C210.523 61.3921 213.195 61.9482 215.572 63.0605C217.95 64.1729 219.912 65.9285 221.461 68.3276C222.857 70.4432 223.762 72.8968 224.176 75.6885C224.416 77.3242 224.514 79.6797 224.471 82.7549H200.065C200.196 86.3317 201.319 88.8398 203.435 90.2793C204.722 91.1735 206.27 91.6206 208.081 91.6206C210 91.6206 211.559 91.0754 212.759 89.9849C213.413 89.396 213.991 88.5781 214.493 87.5312H224.013C223.773 89.6468 222.671 91.7951 220.708 93.9761C217.655 97.4438 213.38 99.1777 207.884 99.1777C203.348 99.1777 199.346 97.7165 195.878 94.7939C192.41 91.8714 190.676 87.1169 190.676 80.5303C190.676 74.3581 192.236 69.6253 195.354 66.332C198.495 63.0387 202.563 61.3921 207.557 61.3921ZM250.152 61.4902C250.326 61.4902 250.468 61.5011 250.577 61.5229C250.708 61.5229 250.981 61.5339 251.395 61.5557V71.1084C250.806 71.043 250.283 70.9993 249.825 70.9775C249.367 70.9557 248.996 70.9448 248.712 70.9448C244.961 70.9448 242.442 72.1662 241.155 74.6089C240.436 75.9829 240.076 78.0985 240.076 80.9556V98H230.687V62.3408H239.585V68.5566C241.024 66.1794 242.278 64.5545 243.347 63.6821C245.092 62.2209 247.36 61.4902 250.152 61.4902ZM264.154 86.6152C264.35 88.2728 264.775 89.4505 265.43 90.1484C266.586 91.3916 268.723 92.0132 271.842 92.0132C273.674 92.0132 275.124 91.7406 276.193 91.1953C277.283 90.6501 277.829 89.8322 277.829 88.7417C277.829 87.6948 277.392 86.8988 276.52 86.3535C275.648 85.8083 272.409 84.8704 266.804 83.54C262.769 82.5368 259.923 81.2827 258.265 79.7778C256.608 78.2948 255.779 76.1574 255.779 73.3657C255.779 70.0724 257.066 67.248 259.639 64.8926C262.235 62.5153 265.877 61.3267 270.566 61.3267C275.015 61.3267 278.636 62.2209 281.427 64.0093C284.241 65.7759 285.855 68.8402 286.269 73.2021H276.945C276.814 72.0026 276.476 71.0539 275.931 70.356C274.906 69.091 273.161 68.4585 270.697 68.4585C268.668 68.4585 267.218 68.7747 266.346 69.4072C265.495 70.0397 265.07 70.7812 265.07 71.6318C265.07 72.7005 265.528 73.4748 266.444 73.9546C267.36 74.4562 270.599 75.3177 276.16 76.5391C279.868 77.4115 282.649 78.731 284.502 80.4976C286.334 82.286 287.25 84.5215 287.25 87.2041C287.25 90.7373 285.931 93.6271 283.292 95.8735C280.675 98.0981 276.618 99.2104 271.122 99.2104C265.517 99.2104 261.373 98.0327 258.69 95.6772C256.03 93.3 254.699 90.2793 254.699 86.6152H264.154Z" fill="white"/>
</svg>
